<svg width="347" height="114" viewBox="0 0 347 114" fill="none" xmlns="http://www.w3.org/2000/svg">
<g filter="url(#filter0_d_183_1473)">
<rect x="1.5" y="1.5" width="344" height="101" rx="31.5" fill="white" stroke="#B7002A" stroke-width="3"/>
<path d="M129.761 63V39.7273H145.648V44.2955H135.386V49.0682H144.636V53.6477H135.386V63H129.761ZM154.119 63.2955C153.006 63.2955 152.017 63.1098 151.153 62.7386C150.297 62.3598 149.619 61.7917 149.119 61.0341C148.627 60.2689 148.381 59.3106 148.381 58.1591C148.381 57.1894 148.551 56.3712 148.892 55.7045C149.233 55.0379 149.703 54.4962 150.301 54.0795C150.9 53.6629 151.589 53.3485 152.369 53.1364C153.15 52.9167 153.983 52.7689 154.869 52.6932C155.862 52.6023 156.661 52.5076 157.267 52.4091C157.873 52.303 158.313 52.1553 158.585 51.9659C158.866 51.7689 159.006 51.4924 159.006 51.1364V51.0795C159.006 50.4962 158.805 50.0455 158.403 49.7273C158.002 49.4091 157.46 49.25 156.778 49.25C156.044 49.25 155.453 49.4091 155.006 49.7273C154.559 50.0455 154.275 50.4848 154.153 51.0455L149.028 50.8636C149.18 49.803 149.57 48.8561 150.199 48.0227C150.835 47.1818 151.706 46.5227 152.812 46.0455C153.926 45.5606 155.263 45.3182 156.824 45.3182C157.938 45.3182 158.964 45.4508 159.903 45.7159C160.843 45.9735 161.661 46.3523 162.358 46.8523C163.055 47.3447 163.593 47.9508 163.972 48.6705C164.358 49.3902 164.551 50.2121 164.551 51.1364V63H159.324V60.5682H159.188C158.877 61.1591 158.479 61.6591 157.994 62.0682C157.517 62.4773 156.953 62.7841 156.301 62.9886C155.657 63.1932 154.93 63.2955 154.119 63.2955ZM155.835 59.6591C156.434 59.6591 156.972 59.5379 157.449 59.2955C157.934 59.053 158.32 58.7197 158.608 58.2955C158.896 57.8636 159.04 57.3636 159.04 56.7955V55.1364C158.881 55.2197 158.688 55.2955 158.46 55.3636C158.241 55.4318 157.998 55.4962 157.733 55.5568C157.468 55.6174 157.195 55.6705 156.915 55.7159C156.634 55.7614 156.366 55.803 156.108 55.8409C155.585 55.9242 155.138 56.053 154.767 56.2273C154.403 56.4015 154.123 56.6288 153.926 56.9091C153.737 57.1818 153.642 57.5076 153.642 57.8864C153.642 58.4621 153.847 58.9015 154.256 59.2045C154.672 59.5076 155.199 59.6591 155.835 59.6591ZM168.949 63V45.5455H174.233V48.75H174.426C174.79 47.6894 175.403 46.8523 176.267 46.2386C177.131 45.625 178.161 45.3182 179.358 45.3182C180.57 45.3182 181.608 45.6288 182.472 46.25C183.335 46.8712 183.884 47.7045 184.119 48.75H184.301C184.627 47.7121 185.263 46.8826 186.21 46.2614C187.157 45.6326 188.275 45.3182 189.562 45.3182C191.214 45.3182 192.555 45.8485 193.585 46.9091C194.616 47.9621 195.131 49.4091 195.131 51.25V63H189.574V52.5227C189.574 51.6515 189.35 50.9886 188.903 50.5341C188.456 50.072 187.877 49.8409 187.165 49.8409C186.4 49.8409 185.797 50.0909 185.358 50.5909C184.926 51.0833 184.71 51.7462 184.71 52.5795V63H179.369V52.4659C179.369 51.6553 179.15 51.0152 178.71 50.5455C178.271 50.0758 177.691 49.8409 176.972 49.8409C176.487 49.8409 176.059 49.9583 175.688 50.1932C175.316 50.4205 175.025 50.7462 174.812 51.1705C174.608 51.5947 174.506 52.0947 174.506 52.6705V63H168.949ZM199.574 63V45.5455H205.131V63H199.574ZM200.438 43.3295L202.733 38.2045H207.653L204.222 43.3295H200.438ZM215.224 39.7273V63H209.668V39.7273H215.224ZM219.761 63V45.5455H225.318V63H219.761ZM222.545 43.5114C221.765 43.5114 221.095 43.2538 220.534 42.7386C219.973 42.2159 219.693 41.5871 219.693 40.8523C219.693 40.125 219.973 39.5038 220.534 38.9886C221.095 38.4659 221.765 38.2045 222.545 38.2045C223.333 38.2045 224.004 38.4659 224.557 38.9886C225.117 39.5038 225.398 40.125 225.398 40.8523C225.398 41.5871 225.117 42.2159 224.557 42.7386C224.004 43.2538 223.333 43.5114 222.545 43.5114ZM234.776 63.2955C233.662 63.2955 232.673 63.1098 231.81 62.7386C230.954 62.3598 230.276 61.7917 229.776 61.0341C229.283 60.2689 229.037 59.3106 229.037 58.1591C229.037 57.1894 229.207 56.3712 229.548 55.7045C229.889 55.0379 230.359 54.4962 230.957 54.0795C231.556 53.6629 232.245 53.3485 233.026 53.1364C233.806 52.9167 234.639 52.7689 235.526 52.6932C236.518 52.6023 237.317 52.5076 237.923 52.4091C238.529 52.303 238.969 52.1553 239.241 51.9659C239.522 51.7689 239.662 51.4924 239.662 51.1364V51.0795C239.662 50.4962 239.461 50.0455 239.06 49.7273C238.658 49.4091 238.116 49.25 237.435 49.25C236.7 49.25 236.109 49.4091 235.662 49.7273C235.215 50.0455 234.931 50.4848 234.81 51.0455L229.685 50.8636C229.836 49.803 230.226 48.8561 230.855 48.0227C231.491 47.1818 232.363 46.5227 233.469 46.0455C234.582 45.5606 235.92 45.3182 237.48 45.3182C238.594 45.3182 239.62 45.4508 240.56 45.7159C241.499 45.9735 242.317 46.3523 243.014 46.8523C243.711 47.3447 244.249 47.9508 244.628 48.6705C245.014 49.3902 245.207 50.2121 245.207 51.1364V63H239.98V60.5682H239.844C239.533 61.1591 239.135 61.6591 238.651 62.0682C238.173 62.4773 237.609 62.7841 236.957 62.9886C236.313 63.1932 235.586 63.2955 234.776 63.2955ZM236.491 59.6591C237.09 59.6591 237.628 59.5379 238.105 59.2955C238.59 59.053 238.976 58.7197 239.264 58.2955C239.552 57.8636 239.696 57.3636 239.696 56.7955V55.1364C239.537 55.2197 239.344 55.2955 239.116 55.3636C238.897 55.4318 238.654 55.4962 238.389 55.5568C238.124 55.6174 237.851 55.6705 237.571 55.7159C237.291 55.7614 237.022 55.803 236.764 55.8409C236.241 55.9242 235.795 56.053 235.423 56.2273C235.06 56.4015 234.779 56.6288 234.582 56.9091C234.393 57.1818 234.298 57.5076 234.298 57.8864C234.298 58.4621 234.503 58.9015 234.912 59.2045C235.329 59.5076 235.855 59.6591 236.491 59.6591Z" fill="#B7002A"/>
</g>
<g filter="url(#filter1_i_183_1473)">
<path d="M30 51.366L64.6332 16L81.8166 33.683L99 51.366L96.8687 53.2415L90.6296 46.8113L91.0077 87H38.422V46.8113L32.1313 53.2415L30 51.366Z" fill="#E8393B"/>
</g>
<path d="M64.235 20L38 46.9076V87H91L90.47 46.9076L64.235 20Z" fill="#FFA7B8"/>
<ellipse cx="47.5" cy="61" rx="3.5" ry="3" fill="#E8393B"/>
<circle cx="81" cy="61" r="3" fill="#E8393B"/>
<line x1="48.5" y1="58" x2="48.5" y2="64" stroke="#952A2A"/>
<line x1="81.5" y1="58" x2="81.5" y2="64" stroke="#952A2A"/>
<line x1="44" y1="60.5" x2="51" y2="60.5" stroke="#952A2A"/>
<line x1="78" y1="60.5" x2="84" y2="60.5" stroke="#952A2A"/>
<path d="M72 87H60.2803L60 76.3333C61.0068 72.4246 62.0145 71.323 66.1146 71C69.887 71.5122 70.9809 73.807 71.4904 75.2105C72 76.614 72 87 72 87Z" fill="#E8393B"/>
<path d="M62 61C62.7819 70.9495 69.3944 65.8367 68 61" stroke="black"/>
<circle cx="58.5" cy="51.5" r="2.5" fill="black"/>
<circle cx="71.5" cy="51.5" r="2.5" fill="black"/>
<defs>
<filter id="filter0_d_183_1473" x="0" y="0" width="347" height="114" filterUnits="userSpaceOnUse" color-interpolation-filters="sRGB">
<feFlood flood-opacity="0" result="BackgroundImageFix"/>
<feColorMatrix in="SourceAlpha" type="matrix" values="0 0 0 0 0 0 0 0 0 0 0 0 0 0 0 0 0 0 127 0" result="hardAlpha"/>
<feOffset dy="10"/>
<feComposite in2="hardAlpha" operator="out"/>
<feColorMatrix type="matrix" values="0 0 0 0 0.719255 0 0 0 0 0 0 0 0 0 0.163923 0 0 0 1 0"/>
<feBlend mode="normal" in2="BackgroundImageFix" result="effect1_dropShadow_183_1473"/>
<feBlend mode="normal" in="SourceGraphic" in2="effect1_dropShadow_183_1473" result="shape"/>
</filter>
<filter id="filter1_i_183_1473" x="30" y="16" width="69" height="75" filterUnits="userSpaceOnUse" color-interpolation-filters="sRGB">
<feFlood flood-opacity="0" result="BackgroundImageFix"/>
<feBlend mode="normal" in="SourceGraphic" in2="BackgroundImageFix" result="shape"/>
<feColorMatrix in="SourceAlpha" type="matrix" values="0 0 0 0 0 0 0 0 0 0 0 0 0 0 0 0 0 0 127 0" result="hardAlpha"/>
<feOffset dy="4"/>
<feGaussianBlur stdDeviation="2"/>
<feComposite in2="hardAlpha" operator="arithmetic" k2="-1" k3="1"/>
<feColorMatrix type="matrix" values="0 0 0 0 0 0 0 0 0 0 0 0 0 0 0 0 0 0 0.25 0"/>
<feBlend mode="normal" in2="shape" result="effect1_innerShadow_183_1473"/>
</filter>
</defs>
</svg>
