<svg width="181" height="175" viewBox="0 0 181 175" fill="none" xmlns="http://www.w3.org/2000/svg">
<g filter="url(#filter0_d_180_3416)">
<g filter="url(#filter1_d_180_3416)">
<path d="M89.6859 156.294C88.1785 156.294 86.0251 155.289 84.5177 154.356C44.033 128.515 18.407 98.4386 18.407 67.8597C18.407 42.4491 35.8499 24.5038 58.3893 24.5038C72.3866 24.5038 83.2974 32.3279 89.6859 44.1001C96.218 32.2562 106.985 24.5038 120.983 24.5038C143.522 24.5038 160.965 42.4491 160.965 67.8597C160.965 98.4386 135.339 128.515 94.926 154.356C93.3468 155.289 91.1933 156.294 89.6859 156.294Z" fill="#E8393B"/>
</g>
<path d="M72.5339 77.7978C72.4487 76.8603 72.0695 76.1316 71.3962 75.6117C70.7314 75.0833 69.7811 74.8191 68.5453 74.8191C67.7271 74.8191 67.0453 74.9256 66.4999 75.1387C65.9544 75.3517 65.5453 75.6458 65.2726 76.0208C64.9999 76.3872 64.8592 76.8091 64.8507 77.2864C64.8337 77.6784 64.9104 78.0236 65.0808 78.3219C65.2598 78.6202 65.5155 78.8844 65.8479 79.1145C66.1888 79.3361 66.5979 79.5321 67.0751 79.7026C67.5524 79.873 68.0893 80.0222 68.6859 80.15L70.9359 80.6614C72.2314 80.9426 73.3734 81.3176 74.3621 81.7864C75.3592 82.2551 76.1945 82.8134 76.8678 83.4611C77.5496 84.1088 78.0652 84.8546 78.4146 85.6983C78.7641 86.5421 78.943 87.4881 78.9516 88.5364C78.943 90.1898 78.5254 91.6088 77.6987 92.7935C76.872 93.9782 75.6831 94.8858 74.132 95.5165C72.5893 96.1472 70.7271 96.4625 68.5453 96.4625C66.355 96.4625 64.4459 96.1344 62.818 95.4782C61.1902 94.8219 59.9246 93.8247 59.0212 92.4867C58.1178 91.1486 57.6533 89.4568 57.6277 87.4114H63.6874C63.7385 88.2551 63.9643 88.9583 64.3649 89.5208C64.7655 90.0833 65.3152 90.5094 66.0141 90.7992C66.7214 91.0889 67.5396 91.2338 68.4686 91.2338C69.3209 91.2338 70.0453 91.1188 70.6419 90.8887C71.247 90.6586 71.7115 90.3389 72.0354 89.9299C72.3592 89.5208 72.5254 89.052 72.5339 88.5236C72.5254 88.0293 72.372 87.6074 72.0737 87.258C71.7754 86.9 71.3152 86.5932 70.693 86.3375C70.0794 86.0733 69.2953 85.8304 68.3408 85.6088L65.605 84.9696C63.3379 84.4497 61.5524 83.6103 60.2484 82.4512C58.9445 81.2836 58.2967 79.7068 58.3053 77.7211C58.2967 76.1017 58.7314 74.6827 59.6092 73.4639C60.4871 72.2452 61.7016 71.2949 63.2527 70.6131C64.8038 69.9313 66.5723 69.5904 68.5581 69.5904C70.5865 69.5904 72.3464 69.9355 73.8379 70.6259C75.3379 71.3077 76.5013 72.2665 77.328 73.5023C78.1547 74.7381 78.5766 76.1699 78.5936 77.7978H72.5339ZM81.4858 96.1301V76.4938H87.7372V96.1301H81.4858ZM84.6179 74.2054C83.74 74.2054 82.9858 73.9157 82.3551 73.3361C81.7244 72.748 81.409 72.0407 81.409 71.2139C81.409 70.3958 81.7244 69.6969 82.3551 69.1174C82.9858 68.5293 83.74 68.2353 84.6179 68.2353C85.5042 68.2353 86.2585 68.5293 86.8806 69.1174C87.5113 69.6969 87.8267 70.3958 87.8267 71.2139C87.8267 72.0407 87.5113 72.748 86.8806 73.3361C86.2585 73.9157 85.5042 74.2054 84.6179 74.2054ZM91.0544 96.1301V76.4938H96.999V80.0989H97.2163C97.6254 78.9057 98.3158 77.9639 99.2873 77.2736C100.259 76.5833 101.418 76.2381 102.765 76.2381C104.128 76.2381 105.296 76.5875 106.267 77.2864C107.239 77.9853 107.857 78.9228 108.121 80.0989H108.326C108.692 78.9313 109.408 77.998 110.473 77.2992C111.539 76.5918 112.796 76.2381 114.245 76.2381C116.103 76.2381 117.611 76.8347 118.77 78.0279C119.929 79.2125 120.509 80.8404 120.509 82.9114V96.1301H114.258V84.3432C114.258 83.3631 114.006 82.6174 113.503 82.106C113 81.5861 112.348 81.3262 111.547 81.3262C110.686 81.3262 110.009 81.6074 109.515 82.1699C109.029 82.7239 108.786 83.4696 108.786 84.4071V96.1301H102.777V84.2793C102.777 83.3674 102.53 82.6472 102.036 82.1188C101.542 81.5904 100.89 81.3262 100.08 81.3262C99.5345 81.3262 99.053 81.4583 98.6354 81.7225C98.2177 81.9782 97.8896 82.3446 97.651 82.8219C97.4209 83.2992 97.3058 83.8617 97.3058 84.5094V96.1301H91.0544Z" fill="white"/>
</g>
<defs>
<filter id="filter0_d_180_3416" x="14.407" y="24.5038" width="150.558" height="139.791" filterUnits="userSpaceOnUse" color-interpolation-filters="sRGB">
<feFlood flood-opacity="0" result="BackgroundImageFix"/>
<feColorMatrix in="SourceAlpha" type="matrix" values="0 0 0 0 0 0 0 0 0 0 0 0 0 0 0 0 0 0 127 0" result="hardAlpha"/>
<feOffset dy="4"/>
<feGaussianBlur stdDeviation="2"/>
<feComposite in2="hardAlpha" operator="out"/>
<feColorMatrix type="matrix" values="0 0 0 0 0 0 0 0 0 0 0 0 0 0 0 0 0 0 0.25 0"/>
<feBlend mode="normal" in2="BackgroundImageFix" result="effect1_dropShadow_180_3416"/>
<feBlend mode="normal" in="SourceGraphic" in2="effect1_dropShadow_180_3416" result="shape"/>
</filter>
<filter id="filter1_d_180_3416" x="18.407" y="24.5038" width="152.558" height="141.791" filterUnits="userSpaceOnUse" color-interpolation-filters="sRGB">
<feFlood flood-opacity="0" result="BackgroundImageFix"/>
<feColorMatrix in="SourceAlpha" type="matrix" values="0 0 0 0 0 0 0 0 0 0 0 0 0 0 0 0 0 0 127 0" result="hardAlpha"/>
<feOffset dx="10" dy="10"/>
<feComposite in2="hardAlpha" operator="out"/>
<feColorMatrix type="matrix" values="0 0 0 0 0.530583 0 0 0 0 0.138898 0 0 0 0 0.138898 0 0 0 1 0"/>
<feBlend mode="normal" in2="BackgroundImageFix" result="effect1_dropShadow_180_3416"/>
<feBlend mode="normal" in="SourceGraphic" in2="effect1_dropShadow_180_3416" result="shape"/>
</filter>
</defs>
</svg>
