<svg width="347" height="114" viewBox="0 0 347 114" fill="none" xmlns="http://www.w3.org/2000/svg">
<g filter="url(#filter0_d_183_1457)">
<rect x="1.5" y="1.5" width="344" height="101" rx="31.5" fill="white" stroke="#B7002A" stroke-width="3"/>
<path d="M134.795 63H128.75L136.602 39.7273H144.091L151.943 63H145.898L140.432 45.5909H140.25L134.795 63ZM133.989 53.8409H146.625V58.1136H133.989V53.8409ZM155.449 63V45.5455H160.733V48.75H160.926C161.29 47.6894 161.903 46.8523 162.767 46.2386C163.631 45.625 164.661 45.3182 165.858 45.3182C167.07 45.3182 168.108 45.6288 168.972 46.25C169.835 46.8712 170.384 47.7045 170.619 48.75H170.801C171.127 47.7121 171.763 46.8826 172.71 46.2614C173.657 45.6326 174.775 45.3182 176.062 45.3182C177.714 45.3182 179.055 45.8485 180.085 46.9091C181.116 47.9621 181.631 49.4091 181.631 51.25V63H176.074V52.5227C176.074 51.6515 175.85 50.9886 175.403 50.5341C174.956 50.072 174.377 49.8409 173.665 49.8409C172.9 49.8409 172.297 50.0909 171.858 50.5909C171.426 51.0833 171.21 51.7462 171.21 52.5795V63H165.869V52.4659C165.869 51.6553 165.65 51.0152 165.21 50.5455C164.771 50.0758 164.191 49.8409 163.472 49.8409C162.987 49.8409 162.559 49.9583 162.188 50.1932C161.816 50.4205 161.525 50.7462 161.312 51.1705C161.108 51.5947 161.006 52.0947 161.006 52.6705V63H155.449ZM186.074 63V45.5455H191.631V63H186.074ZM188.858 43.5114C188.078 43.5114 187.407 43.2538 186.847 42.7386C186.286 42.2159 186.006 41.5871 186.006 40.8523C186.006 40.125 186.286 39.5038 186.847 38.9886C187.407 38.4659 188.078 38.2045 188.858 38.2045C189.646 38.2045 190.316 38.4659 190.869 38.9886C191.43 39.5038 191.71 40.125 191.71 40.8523C191.71 41.5871 191.43 42.2159 190.869 42.7386C190.316 43.2538 189.646 43.5114 188.858 43.5114ZM196.213 63V59.8295L204.304 49.9773V49.8636H196.497V45.5455H210.929V49.0227L203.429 58.5682V58.6818H211.202V63H196.213ZM220.713 63.2955C219.599 63.2955 218.611 63.1098 217.747 62.7386C216.891 62.3598 216.213 61.7917 215.713 61.0341C215.221 60.2689 214.974 59.3106 214.974 58.1591C214.974 57.1894 215.145 56.3712 215.486 55.7045C215.827 55.0379 216.296 54.4962 216.895 54.0795C217.493 53.6629 218.183 53.3485 218.963 53.1364C219.743 52.9167 220.577 52.7689 221.463 52.6932C222.455 52.6023 223.255 52.5076 223.861 52.4091C224.467 52.303 224.906 52.1553 225.179 51.9659C225.459 51.7689 225.599 51.4924 225.599 51.1364V51.0795C225.599 50.4962 225.399 50.0455 224.997 49.7273C224.596 49.4091 224.054 49.25 223.372 49.25C222.637 49.25 222.046 49.4091 221.599 49.7273C221.152 50.0455 220.868 50.4848 220.747 51.0455L215.622 50.8636C215.774 49.803 216.164 48.8561 216.793 48.0227C217.429 47.1818 218.3 46.5227 219.406 46.0455C220.52 45.5606 221.857 45.3182 223.418 45.3182C224.531 45.3182 225.558 45.4508 226.497 45.7159C227.437 45.9735 228.255 46.3523 228.952 46.8523C229.649 47.3447 230.187 47.9508 230.565 48.6705C230.952 49.3902 231.145 50.2121 231.145 51.1364V63H225.918V60.5682H225.781C225.471 61.1591 225.073 61.6591 224.588 62.0682C224.111 62.4773 223.546 62.7841 222.895 62.9886C222.251 63.1932 221.524 63.2955 220.713 63.2955ZM222.429 59.6591C223.027 59.6591 223.565 59.5379 224.043 59.2955C224.527 59.053 224.914 58.7197 225.202 58.2955C225.49 57.8636 225.634 57.3636 225.634 56.7955V55.1364C225.474 55.2197 225.281 55.2955 225.054 55.3636C224.834 55.4318 224.592 55.4962 224.327 55.5568C224.062 55.6174 223.789 55.6705 223.509 55.7159C223.228 55.7614 222.959 55.803 222.702 55.8409C222.179 55.9242 221.732 56.053 221.361 56.2273C220.997 56.4015 220.717 56.6288 220.52 56.9091C220.33 57.1818 220.236 57.5076 220.236 57.8864C220.236 58.4621 220.44 58.9015 220.849 59.2045C221.266 59.5076 221.793 59.6591 222.429 59.6591ZM241.918 63.25C240.63 63.25 239.459 62.9167 238.406 62.25C237.353 61.5833 236.512 60.5833 235.884 59.25C235.255 57.9167 234.94 56.2614 234.94 54.2841C234.94 52.2311 235.266 50.5417 235.918 49.2159C236.569 47.8902 237.421 46.9091 238.474 46.2727C239.535 45.6364 240.675 45.3182 241.895 45.3182C242.812 45.3182 243.596 45.4773 244.247 45.7955C244.899 46.1061 245.437 46.5076 245.861 47C246.285 47.4924 246.607 48.0038 246.827 48.5341H246.94V39.7273H252.497V63H246.997V60.1705H246.827C246.592 60.7083 246.259 61.2121 245.827 61.6818C245.395 62.1515 244.853 62.5303 244.202 62.8182C243.558 63.1061 242.796 63.25 241.918 63.25ZM243.849 58.9205C244.524 58.9205 245.099 58.7311 245.577 58.3523C246.054 57.9659 246.421 57.4242 246.679 56.7273C246.937 56.0303 247.065 55.2121 247.065 54.2727C247.065 53.3182 246.937 52.4962 246.679 51.8068C246.429 51.1174 246.062 50.5871 245.577 50.2159C245.099 49.8447 244.524 49.6591 243.849 49.6591C243.16 49.6591 242.577 49.8485 242.099 50.2273C241.622 50.6061 241.259 51.1402 241.009 51.8295C240.766 52.5189 240.645 53.3333 240.645 54.2727C240.645 55.2121 240.77 56.0303 241.02 56.7273C241.27 57.4242 241.63 57.9659 242.099 58.3523C242.577 58.7311 243.16 58.9205 243.849 58.9205ZM265.17 63.3295C263.345 63.3295 261.769 62.9697 260.443 62.25C259.125 61.5227 258.11 60.4886 257.398 59.1477C256.693 57.7992 256.341 56.197 256.341 54.3409C256.341 52.5379 256.697 50.9621 257.409 49.6136C258.121 48.2576 259.125 47.2045 260.42 46.4545C261.716 45.697 263.242 45.3182 265 45.3182C266.242 45.3182 267.379 45.5114 268.409 45.8977C269.439 46.2841 270.33 46.8561 271.08 47.6136C271.83 48.3712 272.413 49.3068 272.83 50.4205C273.246 51.5265 273.455 52.7955 273.455 54.2273V55.6136H258.284V52.3864H268.284C268.277 51.7955 268.136 51.2689 267.864 50.8068C267.591 50.3447 267.216 49.9848 266.739 49.7273C266.269 49.4621 265.727 49.3295 265.114 49.3295C264.492 49.3295 263.936 49.4697 263.443 49.75C262.951 50.0227 262.561 50.3977 262.273 50.875C261.985 51.3447 261.833 51.8788 261.818 52.4773V55.7614C261.818 56.4735 261.958 57.0985 262.239 57.6364C262.519 58.1667 262.917 58.5795 263.432 58.875C263.947 59.1705 264.561 59.3182 265.273 59.3182C265.765 59.3182 266.212 59.25 266.614 59.1136C267.015 58.9773 267.36 58.7765 267.648 58.5114C267.936 58.2462 268.152 57.9205 268.295 57.5341L273.398 57.6818C273.186 58.8258 272.72 59.822 272 60.6705C271.288 61.5114 270.352 62.1667 269.193 62.6364C268.034 63.0985 266.693 63.3295 265.17 63.3295Z" fill="#B7002A"/>
</g>
<g filter="url(#filter1_i_183_1457)">
<path d="M28 48.184V27.6126H44.6489C40.3924 25.6933 38.5241 23.9718 37.5012 18.0242C38.3319 10.4329 40.8169 8.58409 47.5254 8C55.1257 9.34173 57.6879 11.4008 58.4213 18.0242C58.4774 22.2158 57.445 24.3112 53.7143 27.6126H71.6707V48.184C67.4483 43.134 59.3032 43.1233 58.4834 52.891C59.9569 62.586 67.723 62.4736 73.3018 58.9056L73.2397 79.3898H29.3947V62.1307C32.3165 65.281 45.5571 61.6743 42.3826 53.5012C39.208 45.3281 34.9708 45.1973 28 48.184Z" fill="#E8393B"/>
<path d="M82.9202 27.5254L71.5013 27.7869V47.661C69.6105 45.1752 68.0813 44.3392 64.0921 44.3486C58.4127 45.5079 57.3641 47.661 56.9717 52.2808C56.5792 56.9007 59.8528 60.4441 62.6974 61.6077C65.5421 62.7713 72.4347 60.6976 72.7216 60.0387V79.3898L111.772 80V27.5254H97.2156C99.5639 31.6153 99.9903 33.9057 98.7846 37.9854C96.4731 41.0128 94.976 42.0227 91.8984 42.431C88.1151 42.7622 85.9114 42.1749 82.9202 37.9854C81.0669 33.9005 81.2425 31.6103 82.9202 27.5254Z" fill="#FFA7B8"/>
<path d="M61 38.5C60.9394 40.0322 61.5 40.5 63 40.5M59.9999 39.5C59.9393 41.0322 61.9999 41.5 62.4999 41M59.5 40.5C59.4394 42.0322 62 42 62.5 41.5" stroke="black" stroke-width="0.5"/>
</g>
<circle cx="77.5" cy="41.5" r="2.5" fill="black"/>
<circle cx="64.5" cy="41.5" r="2.5" fill="black"/>
<path d="M69 64C69.7819 73.9495 76.3944 68.8367 75 64" stroke="black"/>
<path d="M73 62C73.0527 62.1581 73.1182 62.3074 73.183 62.461C73.2722 62.6723 73.3341 62.8942 73.4219 63.105" stroke="black" stroke-width="0.3" stroke-linecap="round"/>
<path d="M73.6228 62.0803C73.7478 62.3829 73.9053 62.7243 74.1451 62.9442" stroke="black" stroke-width="0.3" stroke-linecap="round"/>
<path d="M74.2255 62.0602C74.3624 62.3363 74.5106 62.6104 74.6474 62.8839" stroke="black" stroke-width="0.3" stroke-linecap="round"/>
<path d="M74.7679 62.1205C74.8451 62.3345 74.9173 62.6594 75.1095 62.8036" stroke="black" stroke-width="0.3" stroke-linecap="round"/>
<path d="M75.2099 62.1607C75.3188 62.3784 75.4225 62.5973 75.5514 62.8036" stroke="black" stroke-width="0.3" stroke-linecap="round"/>
<path d="M75.7122 62.2009C75.7933 62.3608 75.8682 62.598 75.9934 62.7232" stroke="black" stroke-width="0.3" stroke-linecap="round"/>
<defs>
<filter id="filter0_d_183_1457" x="0" y="0" width="347" height="114" filterUnits="userSpaceOnUse" color-interpolation-filters="sRGB">
<feFlood flood-opacity="0" result="BackgroundImageFix"/>
<feColorMatrix in="SourceAlpha" type="matrix" values="0 0 0 0 0 0 0 0 0 0 0 0 0 0 0 0 0 0 127 0" result="hardAlpha"/>
<feOffset dy="10"/>
<feComposite in2="hardAlpha" operator="out"/>
<feColorMatrix type="matrix" values="0 0 0 0 0.719255 0 0 0 0 0 0 0 0 0 0.163923 0 0 0 1 0"/>
<feBlend mode="normal" in2="BackgroundImageFix" result="effect1_dropShadow_183_1457"/>
<feBlend mode="normal" in="SourceGraphic" in2="effect1_dropShadow_183_1457" result="shape"/>
</filter>
<filter id="filter1_i_183_1457" x="28" y="8" width="83.7725" height="75.9999" filterUnits="userSpaceOnUse" color-interpolation-filters="sRGB">
<feFlood flood-opacity="0" result="BackgroundImageFix"/>
<feBlend mode="normal" in="SourceGraphic" in2="BackgroundImageFix" result="shape"/>
<feColorMatrix in="SourceAlpha" type="matrix" values="0 0 0 0 0 0 0 0 0 0 0 0 0 0 0 0 0 0 127 0" result="hardAlpha"/>
<feOffset dy="4"/>
<feGaussianBlur stdDeviation="2"/>
<feComposite in2="hardAlpha" operator="arithmetic" k2="-1" k3="1"/>
<feColorMatrix type="matrix" values="0 0 0 0 0 0 0 0 0 0 0 0 0 0 0 0 0 0 0.25 0"/>
<feBlend mode="normal" in2="shape" result="effect1_innerShadow_183_1457"/>
</filter>
</defs>
</svg>
