<svg width="172" height="72" viewBox="0 0 172 72" fill="none" xmlns="http://www.w3.org/2000/svg">
<g filter="url(#filter0_d_168_1001)">
<rect y="15" width="154" height="53" rx="20" fill="#FF6466"/>
<rect x="1" y="16" width="152" height="51" rx="19" stroke="#872323" stroke-width="2"/>
</g>
<path d="M43.7906 47H41.1542L45.1713 35.3636H48.3417L52.3531 47H49.7167L46.802 38.0227H46.7111L43.7906 47ZM43.6258 42.4261H49.8531V44.3466H43.6258V42.4261ZM61.7486 38.2727L58.6974 47H55.9702L52.919 38.2727H55.4758L57.2883 44.517H57.3792L59.1861 38.2727H61.7486ZM66.2392 47.1648C65.6824 47.1648 65.1862 47.0682 64.7506 46.875C64.315 46.678 63.9703 46.3883 63.7165 46.0057C63.4665 45.6193 63.3415 45.1383 63.3415 44.5625C63.3415 44.0777 63.4305 43.6705 63.6085 43.3409C63.7865 43.0114 64.029 42.7462 64.3358 42.5455C64.6426 42.3447 64.9911 42.1932 65.3812 42.0909C65.7752 41.9886 66.1881 41.9167 66.6199 41.875C67.1275 41.822 67.5365 41.7727 67.8472 41.7273C68.1578 41.678 68.3831 41.6061 68.5233 41.5114C68.6634 41.4167 68.7335 41.2765 68.7335 41.0909V41.0568C68.7335 40.697 68.6199 40.4186 68.3926 40.2216C68.1691 40.0246 67.8509 39.9261 67.4381 39.9261C67.0025 39.9261 66.6559 40.0227 66.3983 40.2159C66.1407 40.4053 65.9703 40.6439 65.8869 40.9318L63.6483 40.75C63.7619 40.2197 63.9854 39.7614 64.3187 39.375C64.6521 38.9848 65.082 38.6856 65.6085 38.4773C66.1388 38.2652 66.7525 38.1591 67.4494 38.1591C67.9343 38.1591 68.3983 38.2159 68.8415 38.3295C69.2884 38.4432 69.6843 38.6193 70.029 38.858C70.3775 39.0966 70.6521 39.4034 70.8528 39.7784C71.0536 40.1496 71.154 40.5947 71.154 41.1136V47H68.8585V45.7898H68.7903C68.6502 46.0625 68.4627 46.303 68.2278 46.5114C67.993 46.7159 67.7108 46.8769 67.3812 46.9943C67.0517 47.108 66.671 47.1648 66.2392 47.1648ZM66.9324 45.4943C67.2884 45.4943 67.6028 45.4242 67.8756 45.2841C68.1483 45.1402 68.3623 44.947 68.5176 44.7045C68.6729 44.4621 68.7506 44.1875 68.7506 43.8807V42.9545C68.6748 43.0038 68.5706 43.0492 68.4381 43.0909C68.3093 43.1288 68.1634 43.1648 68.0006 43.1989C67.8377 43.2292 67.6748 43.2576 67.5119 43.2841C67.349 43.3068 67.2013 43.3277 67.0687 43.3466C66.7847 43.3883 66.5365 43.4545 66.3244 43.5455C66.1123 43.6364 65.9475 43.7595 65.8301 43.9148C65.7127 44.0663 65.654 44.2557 65.654 44.483C65.654 44.8125 65.7733 45.0644 66.0119 45.2386C66.2543 45.4091 66.5612 45.4943 66.9324 45.4943ZM76.45 41.9545V47H74.0295V38.2727H76.3364V39.8125H76.4386C76.6318 39.3049 76.9557 38.9034 77.4102 38.608C77.8648 38.3087 78.4159 38.1591 79.0636 38.1591C79.6697 38.1591 80.1981 38.2917 80.6489 38.5568C81.0996 38.822 81.45 39.2008 81.7 39.6932C81.95 40.1818 82.075 40.7652 82.075 41.4432V47H79.6545V41.875C79.6583 41.3409 79.522 40.9242 79.2455 40.625C78.9689 40.322 78.5883 40.1705 78.1034 40.1705C77.7777 40.1705 77.4898 40.2405 77.2398 40.3807C76.9936 40.5208 76.8004 40.7254 76.6602 40.9943C76.5239 41.2595 76.4538 41.5795 76.45 41.9545ZM88.9236 47.1705C88.0296 47.1705 87.2607 46.9811 86.6168 46.6023C85.9766 46.2197 85.4842 45.6894 85.1395 45.0114C84.7986 44.3333 84.6281 43.553 84.6281 42.6705C84.6281 41.7765 84.8005 40.9924 85.1452 40.3182C85.4937 39.6402 85.988 39.1117 86.6281 38.733C87.2683 38.3504 88.0296 38.1591 88.9122 38.1591C89.6736 38.1591 90.3403 38.2973 90.9122 38.5739C91.4842 38.8504 91.9368 39.2386 92.2702 39.7386C92.6035 40.2386 92.7872 40.8258 92.8213 41.5H90.5372C90.4728 41.0644 90.3024 40.714 90.0259 40.4489C89.7531 40.1799 89.3952 40.0455 88.952 40.0455C88.577 40.0455 88.2493 40.1477 87.969 40.3523C87.6925 40.553 87.4766 40.8466 87.3213 41.233C87.166 41.6193 87.0884 42.0871 87.0884 42.6364C87.0884 43.1932 87.1641 43.6667 87.3156 44.0568C87.4709 44.447 87.6887 44.7443 87.969 44.9489C88.2493 45.1534 88.577 45.2557 88.952 45.2557C89.2285 45.2557 89.4766 45.1989 89.6963 45.0852C89.9198 44.9716 90.1035 44.8068 90.2475 44.5909C90.3952 44.3712 90.4918 44.108 90.5372 43.8011H92.8213C92.7834 44.4678 92.6016 45.0549 92.2759 45.5625C91.9539 46.0663 91.5088 46.4602 90.9406 46.7443C90.3725 47.0284 89.7001 47.1705 88.9236 47.1705ZM88.3554 46.9545H89.469L89.3781 47.4489C89.7683 47.5095 90.0865 47.6553 90.3327 47.8864C90.5827 48.1174 90.7096 48.4318 90.7134 48.8295C90.7171 49.3939 90.4558 49.8428 89.9293 50.1761C89.4028 50.5133 88.6641 50.6818 87.7134 50.6818L87.6906 49.6023C88.1679 49.6023 88.541 49.5436 88.81 49.4261C89.0827 49.3125 89.2247 49.1345 89.2361 48.892C89.2437 48.661 89.1546 48.4848 88.969 48.3636C88.7834 48.2424 88.4937 48.1572 88.0997 48.108L88.3554 46.9545ZM97.8574 47.1648C97.3006 47.1648 96.8044 47.0682 96.3688 46.875C95.9332 46.678 95.5885 46.3883 95.3347 46.0057C95.0847 45.6193 94.9597 45.1383 94.9597 44.5625C94.9597 44.0777 95.0487 43.6705 95.2267 43.3409C95.4047 43.0114 95.6472 42.7462 95.954 42.5455C96.2608 42.3447 96.6093 42.1932 96.9994 42.0909C97.3934 41.9886 97.8063 41.9167 98.2381 41.875C98.7457 41.822 99.1547 41.7727 99.4653 41.7273C99.776 41.678 100.001 41.6061 100.141 41.5114C100.282 41.4167 100.352 41.2765 100.352 41.0909V41.0568C100.352 40.697 100.238 40.4186 100.011 40.2216C99.7873 40.0246 99.4691 39.9261 99.0563 39.9261C98.6207 39.9261 98.2741 40.0227 98.0165 40.2159C97.7589 40.4053 97.5885 40.6439 97.5051 40.9318L95.2665 40.75C95.3801 40.2197 95.6036 39.7614 95.9369 39.375C96.2703 38.9848 96.7002 38.6856 97.2267 38.4773C97.757 38.2652 98.3707 38.1591 99.0676 38.1591C99.5525 38.1591 100.016 38.2159 100.46 38.3295C100.907 38.4432 101.302 38.6193 101.647 38.858C101.996 39.0966 102.27 39.4034 102.471 39.7784C102.672 40.1496 102.772 40.5947 102.772 41.1136V47H100.477V45.7898H100.409C100.268 46.0625 100.081 46.303 99.846 46.5114C99.6112 46.7159 99.329 46.8769 98.9994 46.9943C98.6699 47.108 98.2892 47.1648 97.8574 47.1648ZM98.5506 45.4943C98.9066 45.4943 99.221 45.4242 99.4938 45.2841C99.7665 45.1402 99.9805 44.947 100.136 44.7045C100.291 44.4621 100.369 44.1875 100.369 43.8807V42.9545C100.293 43.0038 100.189 43.0492 100.056 43.0909C99.9275 43.1288 99.7816 43.1648 99.6188 43.1989C99.4559 43.2292 99.293 43.2576 99.1301 43.2841C98.9672 43.3068 98.8195 43.3277 98.6869 43.3466C98.4028 43.3883 98.1547 43.4545 97.9426 43.5455C97.7305 43.6364 97.5657 43.7595 97.4483 43.9148C97.3309 44.0663 97.2722 44.2557 97.2722 44.483C97.2722 44.8125 97.3915 45.0644 97.6301 45.2386C97.8725 45.4091 98.1794 45.4943 98.5506 45.4943ZM105.648 47V38.2727H107.994V39.7955H108.085C108.244 39.2538 108.511 38.8447 108.886 38.5682C109.261 38.2879 109.693 38.1477 110.182 38.1477C110.303 38.1477 110.434 38.1553 110.574 38.1705C110.714 38.1856 110.837 38.2064 110.943 38.233V40.3807C110.83 40.3466 110.672 40.3163 110.472 40.2898C110.271 40.2633 110.087 40.25 109.92 40.25C109.564 40.25 109.246 40.3277 108.966 40.483C108.689 40.6345 108.47 40.8466 108.307 41.1193C108.148 41.392 108.068 41.7064 108.068 42.0625V47H105.648Z" fill="white"/>
<g filter="url(#filter1_dd_168_1001)">
<path d="M149.54 8.20561C145.565 1.13922 139.905 -1.28525 135.04 0.631537C130.175 2.54832 128.051 10.0867 129.397 16.3695C130.744 22.6523 147.064 35.3493 149.54 35.0298C152.016 34.7104 164.54 23.3672 167.54 16.3695C170.54 9.37188 164.646 1.80288 162.04 0.631537C159.434 -0.539808 153.299 0.0189259 149.54 8.20561Z" fill="#E8393B"/>
</g>
<defs>
<filter id="filter0_d_168_1001" x="0" y="15" width="158" height="57" filterUnits="userSpaceOnUse" color-interpolation-filters="sRGB">
<feFlood flood-opacity="0" result="BackgroundImageFix"/>
<feColorMatrix in="SourceAlpha" type="matrix" values="0 0 0 0 0 0 0 0 0 0 0 0 0 0 0 0 0 0 127 0" result="hardAlpha"/>
<feOffset dx="4" dy="4"/>
<feComposite in2="hardAlpha" operator="out"/>
<feColorMatrix type="matrix" values="0 0 0 0 0.530583 0 0 0 0 0.138898 0 0 0 0 0.138898 0 0 0 1 0"/>
<feBlend mode="normal" in2="BackgroundImageFix" result="effect1_dropShadow_168_1001"/>
<feBlend mode="normal" in="SourceGraphic" in2="effect1_dropShadow_168_1001" result="shape"/>
</filter>
<filter id="filter1_dd_168_1001" x="129" y="0" width="42.2653" height="37.3516" filterUnits="userSpaceOnUse" color-interpolation-filters="sRGB">
<feFlood flood-opacity="0" result="BackgroundImageFix"/>
<feColorMatrix in="SourceAlpha" type="matrix" values="0 0 0 0 0 0 0 0 0 0 0 0 0 0 0 0 0 0 127 0" result="hardAlpha"/>
<feOffset dx="2.89474" dy="2.31579"/>
<feComposite in2="hardAlpha" operator="out"/>
<feColorMatrix type="matrix" values="0 0 0 0 0.530583 0 0 0 0 0.138898 0 0 0 0 0.138898 0 0 0 1 0"/>
<feBlend mode="normal" in2="BackgroundImageFix" result="effect1_dropShadow_168_1001"/>
<feColorMatrix in="SourceAlpha" type="matrix" values="0 0 0 0 0 0 0 0 0 0 0 0 0 0 0 0 0 0 127 0" result="hardAlpha"/>
<feOffset dx="2.89474" dy="2.31579"/>
<feComposite in2="hardAlpha" operator="out"/>
<feColorMatrix type="matrix" values="0 0 0 0 0.530583 0 0 0 0 0.138898 0 0 0 0 0.138898 0 0 0 1 0"/>
<feBlend mode="normal" in2="effect1_dropShadow_168_1001" result="effect2_dropShadow_168_1001"/>
<feBlend mode="normal" in="SourceGraphic" in2="effect2_dropShadow_168_1001" result="shape"/>
</filter>
</defs>
</svg>
