<svg width="390" height="141" viewBox="0 0 390 141" fill="none" xmlns="http://www.w3.org/2000/svg">
<g filter="url(#filter0_d_48_372)">
<rect x="44.5" y="1.5" width="344" height="101" rx="31.5" fill="white" stroke="#B7002A" stroke-width="3"/>
<path d="M193.886 48.1591H188.205C188.129 47.5758 187.973 47.0492 187.739 46.5795C187.504 46.1098 187.193 45.7083 186.807 45.375C186.42 45.0417 185.962 44.7879 185.432 44.6136C184.909 44.4318 184.33 44.3409 183.693 44.3409C182.564 44.3409 181.591 44.6174 180.773 45.1705C179.962 45.7235 179.337 46.5227 178.898 47.5682C178.466 48.6136 178.25 49.8788 178.25 51.3636C178.25 52.9091 178.47 54.2045 178.909 55.25C179.356 56.2879 179.981 57.072 180.784 57.6023C181.595 58.125 182.553 58.3864 183.659 58.3864C184.28 58.3864 184.845 58.3068 185.352 58.1477C185.867 57.9886 186.318 57.7576 186.705 57.4545C187.098 57.1439 187.42 56.7689 187.67 56.3295C187.928 55.8826 188.106 55.3788 188.205 54.8182L193.886 54.8523C193.788 55.8826 193.489 56.8977 192.989 57.8977C192.496 58.8977 191.818 59.8106 190.955 60.6364C190.091 61.4545 189.038 62.1061 187.795 62.5909C186.561 63.0758 185.144 63.3182 183.545 63.3182C181.439 63.3182 179.553 62.8561 177.886 61.9318C176.227 61 174.917 59.6439 173.955 57.8636C172.992 56.0833 172.511 53.9167 172.511 51.3636C172.511 48.803 173 46.6326 173.977 44.8523C174.955 43.072 176.277 41.7197 177.943 40.7955C179.61 39.8712 181.477 39.4091 183.545 39.4091C184.955 39.4091 186.258 39.6061 187.455 40C188.652 40.3864 189.705 40.9545 190.614 41.7045C191.523 42.447 192.261 43.3598 192.83 44.4432C193.398 45.5265 193.75 46.7652 193.886 48.1591ZM203.026 63.2955C201.912 63.2955 200.923 63.1098 200.06 62.7386C199.204 62.3598 198.526 61.7917 198.026 61.0341C197.533 60.2689 197.287 59.3106 197.287 58.1591C197.287 57.1894 197.457 56.3712 197.798 55.7045C198.139 55.0379 198.609 54.4962 199.207 54.0795C199.806 53.6629 200.495 53.3485 201.276 53.1364C202.056 52.9167 202.889 52.7689 203.776 52.6932C204.768 52.6023 205.567 52.5076 206.173 52.4091C206.779 52.303 207.219 52.1553 207.491 51.9659C207.772 51.7689 207.912 51.4924 207.912 51.1364V51.0795C207.912 50.4962 207.711 50.0455 207.31 49.7273C206.908 49.4091 206.366 49.25 205.685 49.25C204.95 49.25 204.359 49.4091 203.912 49.7273C203.465 50.0455 203.181 50.4848 203.06 51.0455L197.935 50.8636C198.086 49.803 198.476 48.8561 199.105 48.0227C199.741 47.1818 200.613 46.5227 201.719 46.0455C202.832 45.5606 204.17 45.3182 205.73 45.3182C206.844 45.3182 207.87 45.4508 208.81 45.7159C209.749 45.9735 210.567 46.3523 211.264 46.8523C211.961 47.3447 212.499 47.9508 212.878 48.6705C213.264 49.3902 213.457 50.2121 213.457 51.1364V63H208.23V60.5682H208.094C207.783 61.1591 207.385 61.6591 206.901 62.0682C206.423 62.4773 205.859 62.7841 205.207 62.9886C204.563 63.1932 203.836 63.2955 203.026 63.2955ZM204.741 59.6591C205.34 59.6591 205.878 59.5379 206.355 59.2955C206.84 59.053 207.226 58.7197 207.514 58.2955C207.802 57.8636 207.946 57.3636 207.946 56.7955V55.1364C207.787 55.2197 207.594 55.2955 207.366 55.3636C207.147 55.4318 206.904 55.4962 206.639 55.5568C206.374 55.6174 206.101 55.6705 205.821 55.7159C205.541 55.7614 205.272 55.803 205.014 55.8409C204.491 55.9242 204.045 56.053 203.673 56.2273C203.31 56.4015 203.029 56.6288 202.832 56.9091C202.643 57.1818 202.548 57.5076 202.548 57.8864C202.548 58.4621 202.753 58.9015 203.162 59.2045C203.579 59.5076 204.105 59.6591 204.741 59.6591ZM233.094 50.875L227.991 51.0114C227.938 50.6477 227.795 50.3258 227.56 50.0455C227.325 49.7576 227.018 49.5341 226.639 49.375C226.268 49.2083 225.836 49.125 225.344 49.125C224.7 49.125 224.151 49.2538 223.696 49.5114C223.249 49.7689 223.029 50.1174 223.037 50.5568C223.029 50.8977 223.166 51.1932 223.446 51.4432C223.734 51.6932 224.245 51.8939 224.98 52.0455L228.344 52.6818C230.086 53.0152 231.382 53.5682 232.23 54.3409C233.086 55.1136 233.518 56.1364 233.526 57.4091C233.518 58.6061 233.162 59.6477 232.457 60.5341C231.76 61.4205 230.806 62.1098 229.594 62.6023C228.382 63.0871 226.995 63.3295 225.435 63.3295C222.942 63.3295 220.976 62.8182 219.537 61.7955C218.105 60.7652 217.287 59.3864 217.082 57.6591L222.571 57.5227C222.692 58.1591 223.007 58.6439 223.514 58.9773C224.022 59.3106 224.67 59.4773 225.457 59.4773C226.17 59.4773 226.749 59.3447 227.196 59.0795C227.643 58.8144 227.87 58.4621 227.878 58.0227C227.87 57.6288 227.696 57.3144 227.355 57.0795C227.014 56.8371 226.48 56.6477 225.753 56.5114L222.707 55.9318C220.957 55.6136 219.654 55.0265 218.798 54.1705C217.942 53.3068 217.518 52.2083 217.526 50.875C217.518 49.7083 217.829 48.7121 218.457 47.8864C219.086 47.053 219.98 46.4167 221.139 45.9773C222.298 45.5379 223.666 45.3182 225.241 45.3182C227.605 45.3182 229.469 45.8144 230.832 46.8068C232.196 47.7917 232.95 49.1477 233.094 50.875ZM242.182 63.2955C241.068 63.2955 240.08 63.1098 239.216 62.7386C238.36 62.3598 237.682 61.7917 237.182 61.0341C236.689 60.2689 236.443 59.3106 236.443 58.1591C236.443 57.1894 236.614 56.3712 236.955 55.7045C237.295 55.0379 237.765 54.4962 238.364 54.0795C238.962 53.6629 239.652 53.3485 240.432 53.1364C241.212 52.9167 242.045 52.7689 242.932 52.6932C243.924 52.6023 244.723 52.5076 245.33 52.4091C245.936 52.303 246.375 52.1553 246.648 51.9659C246.928 51.7689 247.068 51.4924 247.068 51.1364V51.0795C247.068 50.4962 246.867 50.0455 246.466 49.7273C246.064 49.4091 245.523 49.25 244.841 49.25C244.106 49.25 243.515 49.4091 243.068 49.7273C242.621 50.0455 242.337 50.4848 242.216 51.0455L237.091 50.8636C237.242 49.803 237.633 48.8561 238.261 48.0227C238.898 47.1818 239.769 46.5227 240.875 46.0455C241.989 45.5606 243.326 45.3182 244.886 45.3182C246 45.3182 247.027 45.4508 247.966 45.7159C248.905 45.9735 249.723 46.3523 250.42 46.8523C251.117 47.3447 251.655 47.9508 252.034 48.6705C252.42 49.3902 252.614 50.2121 252.614 51.1364V63H247.386V60.5682H247.25C246.939 61.1591 246.542 61.6591 246.057 62.0682C245.58 62.4773 245.015 62.7841 244.364 62.9886C243.72 63.1932 242.992 63.2955 242.182 63.2955ZM243.898 59.6591C244.496 59.6591 245.034 59.5379 245.511 59.2955C245.996 59.053 246.383 58.7197 246.67 58.2955C246.958 57.8636 247.102 57.3636 247.102 56.7955V55.1364C246.943 55.2197 246.75 55.2955 246.523 55.3636C246.303 55.4318 246.061 55.4962 245.795 55.5568C245.53 55.6174 245.258 55.6705 244.977 55.7159C244.697 55.7614 244.428 55.803 244.17 55.8409C243.648 55.9242 243.201 56.053 242.83 56.2273C242.466 56.4015 242.186 56.6288 241.989 56.9091C241.799 57.1818 241.705 57.5076 241.705 57.8864C241.705 58.4621 241.909 58.9015 242.318 59.2045C242.735 59.5076 243.261 59.6591 243.898 59.6591ZM262.568 39.7273V63H257.011V39.7273H262.568Z" fill="#B7002A"/>
<g filter="url(#filter1_i_48_372)">
<path d="M106.559 32.5533C97.6454 19.6584 92.9226 14.5785 82.0138 18.0763C71.1049 21.5741 68.0855 32.5533 71.1049 44.0183C74.1243 55.4833 105.585 86.5749 111.137 85.9919C116.688 85.4089 138.896 61.5073 143.084 44.0183C147.272 26.5293 136.071 20.2138 130.227 18.0763C124.383 15.9388 114.988 17.614 106.559 32.5533Z" fill="#E8393B"/>
</g>
<path d="M101 46.5C101 47.8807 99.8807 49 98.5 49C97.1193 49 96 47.8807 96 46.5C96 45.1193 97.1193 44 98.5 44C99.8807 44 101 45.1193 101 46.5Z" fill="black"/>
<path d="M-150 128C-150 129.381 -151.119 130.5 -152.5 130.5C-153.881 130.5 -155 129.381 -155 128C-155 126.619 -153.881 125.5 -152.5 125.5C-151.119 125.5 -150 126.619 -150 128Z" fill="black"/>
<circle cx="116.5" cy="46.5" r="2.5" fill="black"/>
<path d="M105.5 60C106.282 69.9495 112.894 64.8367 111.5 60" stroke="black"/>
</g>
<defs>
<filter id="filter0_d_48_372" x="-155" y="0" width="545" height="140.5" filterUnits="userSpaceOnUse" color-interpolation-filters="sRGB">
<feFlood flood-opacity="0" result="BackgroundImageFix"/>
<feColorMatrix in="SourceAlpha" type="matrix" values="0 0 0 0 0 0 0 0 0 0 0 0 0 0 0 0 0 0 127 0" result="hardAlpha"/>
<feOffset dy="10"/>
<feComposite in2="hardAlpha" operator="out"/>
<feColorMatrix type="matrix" values="0 0 0 0 0.719255 0 0 0 0 0 0 0 0 0 0.163923 0 0 0 1 0"/>
<feBlend mode="normal" in2="BackgroundImageFix" result="effect1_dropShadow_48_372"/>
<feBlend mode="normal" in="SourceGraphic" in2="effect1_dropShadow_48_372" result="shape"/>
</filter>
<filter id="filter1_i_48_372" x="70" y="17" width="74" height="73" filterUnits="userSpaceOnUse" color-interpolation-filters="sRGB">
<feFlood flood-opacity="0" result="BackgroundImageFix"/>
<feBlend mode="normal" in="SourceGraphic" in2="BackgroundImageFix" result="shape"/>
<feColorMatrix in="SourceAlpha" type="matrix" values="0 0 0 0 0 0 0 0 0 0 0 0 0 0 0 0 0 0 127 0" result="hardAlpha"/>
<feOffset dy="4"/>
<feGaussianBlur stdDeviation="2"/>
<feComposite in2="hardAlpha" operator="arithmetic" k2="-1" k3="1"/>
<feColorMatrix type="matrix" values="0 0 0 0 0 0 0 0 0 0 0 0 0 0 0 0 0 0 0.25 0"/>
<feBlend mode="normal" in2="shape" result="effect1_innerShadow_48_372"/>
</filter>
</defs>
</svg>
