<svg width="174" height="72" viewBox="0 0 174 72" fill="none" xmlns="http://www.w3.org/2000/svg">
<g filter="url(#filter0_d_186_981)">
<rect y="14.0358" width="154" height="53" rx="20" fill="#FF6466"/>
<rect x="1" y="15.0358" width="152" height="51" rx="19" stroke="#872323" stroke-width="2"/>
</g>
<path d="M40.5379 25.3994L43.3504 34.2403H43.4584L46.2765 25.3994H49.0038L44.9924 37.0358H41.822L37.8049 25.3994H40.5379ZM54.3155 37.2062C53.4329 37.2062 52.6696 37.0187 52.0257 36.6437C51.3855 36.2649 50.8912 35.7384 50.5427 35.0642C50.1943 34.3861 50.02 33.6002 50.02 32.7062C50.02 31.8047 50.1943 31.0168 50.5427 30.3426C50.8912 29.6646 51.3855 29.138 52.0257 28.763C52.6696 28.3843 53.4329 28.1949 54.3155 28.1949C55.198 28.1949 55.9594 28.3843 56.5996 28.763C57.2435 29.138 57.7397 29.6646 58.0882 30.3426C58.4367 31.0168 58.6109 31.8047 58.6109 32.7062C58.6109 33.6002 58.4367 34.3861 58.0882 35.0642C57.7397 35.7384 57.2435 36.2649 56.5996 36.6437C55.9594 37.0187 55.198 37.2062 54.3155 37.2062ZM54.3268 35.3312C54.7283 35.3312 55.0636 35.2176 55.3325 34.9903C55.6014 34.7593 55.8041 34.4449 55.9405 34.0471C56.0806 33.6494 56.1507 33.1968 56.1507 32.6892C56.1507 32.1816 56.0806 31.7289 55.9405 31.3312C55.8041 30.9335 55.6014 30.6191 55.3325 30.388C55.0636 30.157 54.7283 30.0414 54.3268 30.0414C53.9215 30.0414 53.5806 30.157 53.3041 30.388C53.0314 30.6191 52.8249 30.9335 52.6848 31.3312C52.5484 31.7289 52.4802 32.1816 52.4802 32.6892C52.4802 33.1968 52.5484 33.6494 52.6848 34.0471C52.8249 34.4449 53.0314 34.7593 53.3041 34.9903C53.5806 35.2176 53.9215 35.3312 54.3268 35.3312ZM63.603 25.3994V37.0358H61.1825V25.3994H63.603ZM71.1817 28.3085V30.1267H65.926V28.3085H71.1817ZM67.1192 26.2176H69.5396V34.3539C69.5396 34.5774 69.5737 34.7517 69.6419 34.8767C69.7101 34.9979 69.8048 35.0831 69.926 35.1324C70.051 35.1816 70.1949 35.2062 70.3578 35.2062C70.4714 35.2062 70.5851 35.1968 70.6987 35.1778C70.8124 35.1551 70.8995 35.138 70.9601 35.1267L71.3408 36.9278C71.2195 36.9657 71.0491 37.0093 70.8294 37.0585C70.6097 37.1115 70.3427 37.1437 70.0283 37.1551C69.4449 37.1778 68.9336 37.1002 68.4942 36.9221C68.0586 36.7441 67.7195 36.4676 67.4771 36.0926C67.2347 35.7176 67.1154 35.2441 67.1192 34.6721V26.2176ZM76.2447 37.2005C75.6879 37.2005 75.1917 37.1039 74.7561 36.9108C74.3205 36.7138 73.9758 36.424 73.722 36.0414C73.472 35.6551 73.347 35.174 73.347 34.5983C73.347 34.1134 73.436 33.7062 73.6141 33.3767C73.7921 33.0471 74.0345 32.782 74.3413 32.5812C74.6482 32.3805 74.9966 32.2289 75.3868 32.1267C75.7807 32.0244 76.1936 31.9524 76.6254 31.9108C77.133 31.8577 77.5421 31.8085 77.8527 31.763C78.1633 31.7138 78.3887 31.6418 78.5288 31.5471C78.669 31.4524 78.7391 31.3123 78.7391 31.1267V31.0926C78.7391 30.7327 78.6254 30.4543 78.3981 30.2574C78.1747 30.0604 77.8565 29.9619 77.4436 29.9619C77.008 29.9619 76.6614 30.0585 76.4038 30.2517C76.1463 30.4411 75.9758 30.6797 75.8925 30.9676L73.6538 30.7858C73.7675 30.2555 73.991 29.7971 74.3243 29.4108C74.6576 29.0206 75.0875 28.7214 75.6141 28.513C76.1444 28.3009 76.758 28.1949 77.455 28.1949C77.9398 28.1949 78.4038 28.2517 78.847 28.3653C79.294 28.4789 79.6898 28.6551 80.0345 28.8937C80.383 29.1324 80.6576 29.4392 80.8584 29.8142C81.0591 30.1854 81.1595 30.6305 81.1595 31.1494V37.0358H78.8641V35.8255H78.7959C78.6557 36.0983 78.4682 36.3388 78.2334 36.5471C77.9985 36.7517 77.7163 36.9127 77.3868 37.0301C77.0572 37.1437 76.6766 37.2005 76.2447 37.2005ZM76.9379 35.5301C77.294 35.5301 77.6084 35.46 77.8811 35.3199C78.1538 35.1759 78.3678 34.9827 78.5231 34.7403C78.6785 34.4979 78.7561 34.2233 78.7561 33.9164V32.9903C78.6803 33.0396 78.5762 33.085 78.4436 33.1267C78.3148 33.1646 78.169 33.2005 78.0061 33.2346C77.8432 33.2649 77.6803 33.2933 77.5175 33.3199C77.3546 33.3426 77.2069 33.3634 77.0743 33.3824C76.7902 33.424 76.5421 33.4903 76.33 33.5812C76.1178 33.6721 75.9531 33.7952 75.8357 33.9505C75.7182 34.1021 75.6595 34.2914 75.6595 34.5187C75.6595 34.8483 75.7788 35.1002 76.0175 35.2744C76.2599 35.4449 76.5667 35.5301 76.9379 35.5301ZM84.0351 37.0358V28.3085H86.3817V29.8312H86.4726C86.6317 29.2896 86.8987 28.8805 87.2737 28.6039C87.6487 28.3236 88.0805 28.1835 88.5692 28.1835C88.6904 28.1835 88.8211 28.1911 88.9612 28.2062C89.1014 28.2214 89.2245 28.2422 89.3305 28.2687V30.4164C89.2169 30.3824 89.0597 30.3521 88.859 30.3255C88.6582 30.299 88.4745 30.2858 88.3078 30.2858C87.9518 30.2858 87.6336 30.3634 87.3533 30.5187C87.0768 30.6702 86.8571 30.8824 86.6942 31.1551C86.5351 31.4278 86.4555 31.7422 86.4555 32.0983V37.0358H84.0351ZM98.7692 37.2005C98.2124 37.2005 97.7162 37.1039 97.2806 36.9108C96.8449 36.7138 96.5002 36.424 96.2465 36.0414C95.9965 35.6551 95.8715 35.174 95.8715 34.5983C95.8715 34.1134 95.9605 33.7062 96.1385 33.3767C96.3165 33.0471 96.559 32.782 96.8658 32.5812C97.1726 32.3805 97.5211 32.2289 97.9112 32.1267C98.3052 32.0244 98.7181 31.9524 99.1499 31.9108C99.6574 31.8577 100.067 31.8085 100.377 31.763C100.688 31.7138 100.913 31.6418 101.053 31.5471C101.193 31.4524 101.264 31.3123 101.264 31.1267V31.0926C101.264 30.7327 101.15 30.4543 100.923 30.2574C100.699 30.0604 100.381 29.9619 99.9681 29.9619C99.5324 29.9619 99.1859 30.0585 98.9283 30.2517C98.6707 30.4411 98.5002 30.6797 98.4169 30.9676L96.1783 30.7858C96.2919 30.2555 96.5154 29.7971 96.8487 29.4108C97.1821 29.0206 97.612 28.7214 98.1385 28.513C98.6688 28.3009 99.2824 28.1949 99.9794 28.1949C100.464 28.1949 100.928 28.2517 101.371 28.3653C101.818 28.4789 102.214 28.6551 102.559 28.8937C102.907 29.1324 103.182 29.4392 103.383 29.8142C103.584 30.1854 103.684 30.6305 103.684 31.1494V37.0358H101.389V35.8255H101.32C101.18 36.0983 100.993 36.3388 100.758 36.5471C100.523 36.7517 100.241 36.9127 99.9112 37.0301C99.5817 37.1437 99.201 37.2005 98.7692 37.2005ZM99.4624 35.5301C99.8184 35.5301 100.133 35.46 100.406 35.3199C100.678 35.1759 100.892 34.9827 101.048 34.7403C101.203 34.4979 101.281 34.2233 101.281 33.9164V32.9903C101.205 33.0396 101.101 33.085 100.968 33.1267C100.839 33.1646 100.693 33.2005 100.531 33.2346C100.368 33.2649 100.205 33.2933 100.042 33.3199C99.879 33.3426 99.7313 33.3634 99.5987 33.3824C99.3146 33.424 99.0665 33.4903 98.8544 33.5812C98.6423 33.6721 98.4775 33.7952 98.3601 33.9505C98.2427 34.1021 98.184 34.2914 98.184 34.5187C98.184 34.8483 98.3033 35.1002 98.5419 35.2744C98.7843 35.4449 99.0912 35.5301 99.4624 35.5301ZM99.2294 27.1835L97.4965 24.5983H99.7294L100.94 27.1835H99.2294ZM113.821 30.7971L111.605 30.9335C111.567 30.7441 111.486 30.5736 111.361 30.4221C111.236 30.2668 111.071 30.1437 110.866 30.0528C110.666 29.9581 110.425 29.9108 110.145 29.9108C109.77 29.9108 109.453 29.9903 109.196 30.1494C108.938 30.3047 108.81 30.513 108.81 30.7744C108.81 30.9827 108.893 31.1589 109.06 31.3028C109.226 31.4468 109.512 31.5623 109.917 31.6494L111.497 31.9676C112.346 32.1418 112.978 32.4221 113.395 32.8085C113.811 33.1949 114.02 33.7024 114.02 34.3312C114.02 34.9032 113.851 35.4051 113.514 35.8369C113.181 36.2687 112.722 36.6058 112.139 36.8483C111.56 37.0869 110.891 37.2062 110.133 37.2062C108.978 37.2062 108.058 36.9657 107.372 36.4846C106.69 35.9998 106.291 35.3407 106.173 34.5074L108.554 34.3824C108.626 34.7346 108.8 35.0036 109.077 35.1892C109.353 35.371 109.707 35.4619 110.139 35.4619C110.563 35.4619 110.904 35.3805 111.162 35.2176C111.423 35.0509 111.556 34.8369 111.56 34.5755C111.556 34.3558 111.463 34.1759 111.281 34.0358C111.099 33.8918 110.819 33.782 110.44 33.7062L108.929 33.4051C108.077 33.2346 107.442 32.9392 107.025 32.5187C106.613 32.0983 106.406 31.5623 106.406 30.9108C106.406 30.3502 106.558 29.8672 106.861 29.4619C107.167 29.0566 107.597 28.7441 108.15 28.5244C108.707 28.3047 109.359 28.1949 110.105 28.1949C111.207 28.1949 112.075 28.4278 112.707 28.8937C113.344 29.3596 113.715 29.9941 113.821 30.7971ZM32.0684 44.3994V56.0358H29.648V44.3994H32.0684ZM35.0051 56.0358V47.3085H37.4256V56.0358H35.0051ZM36.221 46.1835C35.8612 46.1835 35.5524 46.0642 35.2949 45.8255C35.0411 45.5831 34.9142 45.2933 34.9142 44.9562C34.9142 44.6229 35.0411 44.3369 35.2949 44.0983C35.5524 43.8558 35.8612 43.7346 36.221 43.7346C36.5809 43.7346 36.8877 43.8558 37.1415 44.0983C37.399 44.3369 37.5278 44.6229 37.5278 44.9562C37.5278 45.2933 37.399 45.5831 37.1415 45.8255C36.8877 46.0642 36.5809 46.1835 36.221 46.1835ZM42.7827 50.9903V56.0358H40.3622V47.3085H42.669V48.8483H42.7713C42.9645 48.3407 43.2883 47.9392 43.7429 47.6437C44.1974 47.3445 44.7486 47.1949 45.3963 47.1949C46.0024 47.1949 46.5308 47.3274 46.9815 47.5926C47.4323 47.8577 47.7827 48.2365 48.0327 48.7289C48.2827 49.2176 48.4077 49.8009 48.4077 50.4789V56.0358H45.9872V50.9108C45.991 50.3767 45.8546 49.96 45.5781 49.6608C45.3016 49.3577 44.9209 49.2062 44.4361 49.2062C44.1103 49.2062 43.8224 49.2763 43.5724 49.4164C43.3262 49.5566 43.133 49.7611 42.9929 50.0301C42.8565 50.2952 42.7864 50.6153 42.7827 50.9903ZM55.2449 59.4903C54.4608 59.4903 53.7884 59.3824 53.2278 59.1664C52.671 58.9543 52.2278 58.6646 51.8983 58.2971C51.5687 57.9297 51.3547 57.5168 51.2562 57.0585L53.4949 56.7574C53.5631 56.9316 53.671 57.0945 53.8187 57.246C53.9665 57.3975 54.1615 57.5187 54.404 57.6096C54.6502 57.7043 54.9494 57.7517 55.3017 57.7517C55.8282 57.7517 56.2619 57.6229 56.6028 57.3653C56.9475 57.1115 57.1199 56.6854 57.1199 56.0869V54.4903H57.0176C56.9115 54.7327 56.7525 54.9619 56.5403 55.1778C56.3282 55.3937 56.0555 55.5699 55.7222 55.7062C55.3888 55.8426 54.9911 55.9108 54.529 55.9108C53.8737 55.9108 53.2771 55.7593 52.7392 55.4562C52.2051 55.1494 51.779 54.6816 51.4608 54.0528C51.1464 53.4202 50.9892 52.621 50.9892 51.6551C50.9892 50.6664 51.1502 49.8407 51.4722 49.1778C51.7941 48.5149 52.2222 48.0187 52.7562 47.6892C53.2941 47.3596 53.8831 47.1949 54.5233 47.1949C55.0119 47.1949 55.421 47.2782 55.7506 47.4449C56.0801 47.6077 56.3453 47.8123 56.546 48.0585C56.7506 48.3009 56.9078 48.5396 57.0176 48.7744H57.1085V47.3085H59.5119V56.121C59.5119 56.8634 59.3301 57.4846 58.9665 57.9846C58.6028 58.4846 58.099 58.8596 57.4551 59.1096C56.815 59.3634 56.0782 59.4903 55.2449 59.4903ZM55.296 54.0926C55.6862 54.0926 56.0157 53.996 56.2847 53.8028C56.5574 53.6058 56.7657 53.3255 56.9097 52.9619C57.0574 52.5945 57.1312 52.1551 57.1312 51.6437C57.1312 51.1324 57.0593 50.6892 56.9153 50.3142C56.7714 49.9354 56.5631 49.6418 56.2903 49.4335C56.0176 49.2252 55.6862 49.121 55.296 49.121C54.8983 49.121 54.5631 49.2289 54.2903 49.4449C54.0176 49.657 53.8112 49.9524 53.671 50.3312C53.5309 50.71 53.4608 51.1475 53.4608 51.6437C53.4608 52.1475 53.5309 52.5831 53.671 52.9505C53.815 53.3142 54.0214 53.5964 54.2903 53.7971C54.5631 53.9941 54.8983 54.0926 55.296 54.0926ZM68.0324 52.3199V47.3085H70.4528V56.0358H68.129V54.4505H68.0381C67.8411 54.9619 67.5134 55.3729 67.0551 55.6835C66.6006 55.9941 66.0456 56.1494 65.3903 56.1494C64.807 56.1494 64.2937 56.0168 63.8506 55.7517C63.4074 55.4865 63.0608 55.1096 62.8108 54.621C62.5646 54.1324 62.4396 53.5471 62.4358 52.8653V47.3085H64.8562V52.4335C64.86 52.9486 64.9983 53.3558 65.271 53.6551C65.5437 53.9543 65.9093 54.1039 66.3676 54.1039C66.6593 54.1039 66.932 54.0377 67.1858 53.9051C67.4396 53.7687 67.6441 53.568 67.7994 53.3028C67.9585 53.0377 68.0362 52.71 68.0324 52.3199ZM75.8753 56.2005C75.3185 56.2005 74.8223 56.1039 74.3867 55.9108C73.951 55.7138 73.6063 55.424 73.3526 55.0414C73.1026 54.6551 72.9776 54.174 72.9776 53.5983C72.9776 53.1134 73.0666 52.7062 73.2446 52.3767C73.4226 52.0471 73.6651 51.782 73.9719 51.5812C74.2787 51.3805 74.6272 51.2289 75.0173 51.1267C75.4113 51.0244 75.8242 50.9524 76.256 50.9108C76.7635 50.8577 77.1726 50.8085 77.4832 50.763C77.7938 50.7138 78.0192 50.6418 78.1594 50.5471C78.2995 50.4524 78.3696 50.3123 78.3696 50.1267V50.0926C78.3696 49.7327 78.256 49.4543 78.0287 49.2574C77.8052 49.0604 77.487 48.9619 77.0742 48.9619C76.6385 48.9619 76.292 49.0585 76.0344 49.2517C75.7768 49.4411 75.6063 49.6797 75.523 49.9676L73.2844 49.7858C73.398 49.2555 73.6215 48.7971 73.9548 48.4108C74.2882 48.0206 74.7181 47.7214 75.2446 47.513C75.7749 47.3009 76.3885 47.1949 77.0855 47.1949C77.5704 47.1949 78.0344 47.2517 78.4776 47.3653C78.9245 47.4789 79.3204 47.6551 79.6651 47.8937C80.0135 48.1324 80.2882 48.4392 80.4889 48.8142C80.6897 49.1854 80.7901 49.6305 80.7901 50.1494V56.0358H78.4946V54.8255H78.4264C78.2863 55.0983 78.0988 55.3388 77.8639 55.5471C77.6291 55.7517 77.3469 55.9127 77.0173 56.0301C76.6878 56.1437 76.3071 56.2005 75.8753 56.2005ZM76.5685 54.5301C76.9245 54.5301 77.2389 54.46 77.5117 54.3199C77.7844 54.1759 77.9984 53.9827 78.1537 53.7403C78.309 53.4979 78.3867 53.2233 78.3867 52.9164V51.9903C78.3109 52.0396 78.2067 52.085 78.0742 52.1267C77.9454 52.1646 77.7995 52.2005 77.6367 52.2346C77.4738 52.2649 77.3109 52.2933 77.148 52.3199C76.9851 52.3426 76.8374 52.3634 76.7048 52.3824C76.4207 52.424 76.1726 52.4903 75.9605 52.5812C75.7484 52.6721 75.5836 52.7952 75.4662 52.9505C75.3488 53.1021 75.2901 53.2914 75.2901 53.5187C75.2901 53.8483 75.4094 54.1002 75.648 54.2744C75.8904 54.4449 76.1973 54.5301 76.5685 54.5301ZM87.5974 59.4903C86.8134 59.4903 86.141 59.3824 85.5804 59.1664C85.0236 58.9543 84.5804 58.6646 84.2509 58.2971C83.9213 57.9297 83.7073 57.5168 83.6088 57.0585L85.8474 56.7574C85.9156 56.9316 86.0236 57.0945 86.1713 57.246C86.319 57.3975 86.5141 57.5187 86.7565 57.6096C87.0028 57.7043 87.302 57.7517 87.6543 57.7517C88.1808 57.7517 88.6145 57.6229 88.9554 57.3653C89.3001 57.1115 89.4724 56.6854 89.4724 56.0869V54.4903H89.3702C89.2641 54.7327 89.105 54.9619 88.8929 55.1778C88.6808 55.3937 88.4081 55.5699 88.0747 55.7062C87.7414 55.8426 87.3437 55.9108 86.8815 55.9108C86.2262 55.9108 85.6296 55.7593 85.0918 55.4562C84.5577 55.1494 84.1315 54.6816 83.8134 54.0528C83.499 53.4202 83.3418 52.621 83.3418 51.6551C83.3418 50.6664 83.5028 49.8407 83.8247 49.1778C84.1467 48.5149 84.5747 48.0187 85.1088 47.6892C85.6467 47.3596 86.2357 47.1949 86.8759 47.1949C87.3645 47.1949 87.7736 47.2782 88.1031 47.4449C88.4327 47.6077 88.6978 47.8123 88.8986 48.0585C89.1031 48.3009 89.2603 48.5396 89.3702 48.7744H89.4611V47.3085H91.8645V56.121C91.8645 56.8634 91.6827 57.4846 91.319 57.9846C90.9554 58.4846 90.4516 58.8596 89.8077 59.1096C89.1675 59.3634 88.4308 59.4903 87.5974 59.4903ZM87.6486 54.0926C88.0387 54.0926 88.3683 53.996 88.6372 53.8028C88.9099 53.6058 89.1183 53.3255 89.2622 52.9619C89.4099 52.5945 89.4838 52.1551 89.4838 51.6437C89.4838 51.1324 89.4118 50.6892 89.2679 50.3142C89.124 49.9354 88.9156 49.6418 88.6429 49.4335C88.3702 49.2252 88.0387 49.121 87.6486 49.121C87.2509 49.121 86.9156 49.2289 86.6429 49.4449C86.3702 49.657 86.1637 49.9524 86.0236 50.3312C85.8834 50.71 85.8134 51.1475 85.8134 51.6437C85.8134 52.1475 85.8834 52.5831 86.0236 52.9505C86.1675 53.3142 86.374 53.5964 86.6429 53.7971C86.9156 53.9941 87.2509 54.0926 87.6486 54.0926ZM98.7656 56.2062C97.8679 56.2062 97.0952 56.0244 96.4474 55.6608C95.8035 55.2933 95.3073 54.7744 94.9588 54.1039C94.6103 53.4297 94.4361 52.6324 94.4361 51.7119C94.4361 50.8142 94.6103 50.0263 94.9588 49.3483C95.3073 48.6702 95.7978 48.1418 96.4304 47.763C97.0668 47.3843 97.813 47.1949 98.669 47.1949C99.2448 47.1949 99.7808 47.2877 100.277 47.4733C100.777 47.6551 101.213 47.9297 101.584 48.2971C101.959 48.6646 102.25 49.1267 102.459 49.6835C102.667 50.2365 102.771 50.8843 102.771 51.6267V52.2914H95.402V50.7914H100.493C100.493 50.443 100.417 50.1343 100.266 49.8653C100.114 49.5964 99.9039 49.3861 99.6349 49.2346C99.3698 49.0793 99.0611 49.0017 98.7088 49.0017C98.3414 49.0017 98.0156 49.0869 97.7315 49.2574C97.4512 49.424 97.2315 49.6494 97.0724 49.9335C96.9134 50.2138 96.8319 50.5263 96.8281 50.871V52.2971C96.8281 52.7289 96.9077 53.1021 97.0668 53.4164C97.2296 53.7308 97.4588 53.9733 97.7543 54.1437C98.0497 54.3142 98.4001 54.3994 98.8054 54.3994C99.0743 54.3994 99.3206 54.3615 99.544 54.2858C99.7675 54.21 99.9588 54.0964 100.118 53.9449C100.277 53.7933 100.398 53.6077 100.482 53.388L102.72 53.5358C102.607 54.0736 102.374 54.5433 102.021 54.9449C101.673 55.3426 101.222 55.6532 100.669 55.8767C100.12 56.0964 99.4853 56.2062 98.7656 56.2062ZM107.769 50.9903V56.0358H105.349V47.3085H107.655V48.8483H107.758C107.951 48.3407 108.275 47.9392 108.729 47.6437C109.184 47.3445 109.735 47.1949 110.383 47.1949C110.989 47.1949 111.517 47.3274 111.968 47.5926C112.419 47.8577 112.769 48.2365 113.019 48.7289C113.269 49.2176 113.394 49.8009 113.394 50.4789V56.0358H110.974V50.9108C110.977 50.3767 110.841 49.96 110.565 49.6608C110.288 49.3577 109.907 49.2062 109.422 49.2062C109.097 49.2062 108.809 49.2763 108.559 49.4164C108.313 49.5566 108.119 49.7611 107.979 50.0301C107.843 50.2952 107.773 50.6153 107.769 50.9903ZM123.561 49.7971L121.345 49.9335C121.307 49.7441 121.226 49.5736 121.101 49.4221C120.976 49.2668 120.811 49.1437 120.606 49.0528C120.406 48.9581 120.165 48.9108 119.885 48.9108C119.51 48.9108 119.193 48.9903 118.936 49.1494C118.678 49.3047 118.549 49.513 118.549 49.7744C118.549 49.9827 118.633 50.1589 118.799 50.3028C118.966 50.4468 119.252 50.5623 119.657 50.6494L121.237 50.9676C122.085 51.1418 122.718 51.4221 123.135 51.8085C123.551 52.1949 123.76 52.7024 123.76 53.3312C123.76 53.9032 123.591 54.4051 123.254 54.8369C122.921 55.2687 122.462 55.6058 121.879 55.8483C121.299 56.0869 120.631 56.2062 119.873 56.2062C118.718 56.2062 117.798 55.9657 117.112 55.4846C116.43 54.9998 116.031 54.3407 115.913 53.5074L118.294 53.3824C118.366 53.7346 118.54 54.0036 118.816 54.1892C119.093 54.371 119.447 54.4619 119.879 54.4619C120.303 54.4619 120.644 54.3805 120.902 54.2176C121.163 54.0509 121.296 53.8369 121.299 53.5755C121.296 53.3558 121.203 53.1759 121.021 53.0358C120.839 52.8918 120.559 52.782 120.18 52.7062L118.669 52.4051C117.816 52.2346 117.182 51.9392 116.765 51.5187C116.352 51.0983 116.146 50.5623 116.146 49.9108C116.146 49.3502 116.298 48.8672 116.601 48.4619C116.907 48.0566 117.337 47.7441 117.89 47.5244C118.447 47.3047 119.099 47.1949 119.845 47.1949C120.947 47.1949 121.815 47.4278 122.447 47.8937C123.084 48.3596 123.455 48.9941 123.561 49.7971Z" fill="white"/>
<g filter="url(#filter1_dd_186_981)">
<path d="M151.5 8.20561C147.525 1.13922 141.865 -1.28525 137 0.631537C132.135 2.54832 130.011 10.0867 131.357 16.3695C132.704 22.6523 149.024 35.3493 151.5 35.0298C153.976 34.7104 166.5 23.3672 169.5 16.3695C172.5 9.37188 166.606 1.80288 164 0.631537C161.394 -0.539808 155.259 0.0189259 151.5 8.20561Z" fill="#E8393B"/>
</g>
<defs>
<filter id="filter0_d_186_981" x="0" y="14.0358" width="158" height="57" filterUnits="userSpaceOnUse" color-interpolation-filters="sRGB">
<feFlood flood-opacity="0" result="BackgroundImageFix"/>
<feColorMatrix in="SourceAlpha" type="matrix" values="0 0 0 0 0 0 0 0 0 0 0 0 0 0 0 0 0 0 127 0" result="hardAlpha"/>
<feOffset dx="4" dy="4"/>
<feComposite in2="hardAlpha" operator="out"/>
<feColorMatrix type="matrix" values="0 0 0 0 0.530583 0 0 0 0 0.138898 0 0 0 0 0.138898 0 0 0 1 0"/>
<feBlend mode="normal" in2="BackgroundImageFix" result="effect1_dropShadow_186_981"/>
<feBlend mode="normal" in="SourceGraphic" in2="effect1_dropShadow_186_981" result="shape"/>
</filter>
<filter id="filter1_dd_186_981" x="130.96" y="0" width="42.2653" height="37.3516" filterUnits="userSpaceOnUse" color-interpolation-filters="sRGB">
<feFlood flood-opacity="0" result="BackgroundImageFix"/>
<feColorMatrix in="SourceAlpha" type="matrix" values="0 0 0 0 0 0 0 0 0 0 0 0 0 0 0 0 0 0 127 0" result="hardAlpha"/>
<feOffset dx="2.89474" dy="2.31579"/>
<feComposite in2="hardAlpha" operator="out"/>
<feColorMatrix type="matrix" values="0 0 0 0 0.530583 0 0 0 0 0.138898 0 0 0 0 0.138898 0 0 0 1 0"/>
<feBlend mode="normal" in2="BackgroundImageFix" result="effect1_dropShadow_186_981"/>
<feColorMatrix in="SourceAlpha" type="matrix" values="0 0 0 0 0 0 0 0 0 0 0 0 0 0 0 0 0 0 127 0" result="hardAlpha"/>
<feOffset dx="2.89474" dy="2.31579"/>
<feComposite in2="hardAlpha" operator="out"/>
<feColorMatrix type="matrix" values="0 0 0 0 0.530583 0 0 0 0 0.138898 0 0 0 0 0.138898 0 0 0 1 0"/>
<feBlend mode="normal" in2="effect1_dropShadow_186_981" result="effect2_dropShadow_186_981"/>
<feBlend mode="normal" in="SourceGraphic" in2="effect2_dropShadow_186_981" result="shape"/>
</filter>
</defs>
</svg>
