<svg width="430" height="932" viewBox="0 0 430 932" fill="none" xmlns="http://www.w3.org/2000/svg">
<g filter="url(#filter0_d_186_1126)">
<path d="M187.487 517.388C196.329 517.388 203.35 516.346 208.549 514.261C209.711 516.003 210.291 517.89 210.291 519.922C210.291 521.374 209.75 522.416 208.668 523.05C207.586 523.683 205.395 524 202.096 524L169.315 524.04C168.84 522.878 168.603 521.757 168.603 520.674C168.603 519.962 168.801 519.447 169.197 519.13C169.592 518.787 170.173 518.616 170.939 518.616H173.829C173.987 515.211 174.066 506.356 174.066 492.051C174.066 484.317 173.974 478.761 173.789 475.383H169.315C168.84 474.222 168.603 473.113 168.603 472.057C168.603 471.318 168.801 470.791 169.197 470.474C169.592 470.131 170.173 469.959 170.939 469.959H191.803C192.251 470.936 192.476 471.912 192.476 472.889C192.476 473.839 192.304 474.499 191.961 474.868C191.618 475.211 191.077 475.383 190.338 475.383H186.498C186.366 478.761 186.3 484.33 186.3 492.09C186.3 506.369 186.379 514.802 186.537 517.388H187.487ZM235.162 517.943C237.3 517.943 238.884 517.098 239.913 515.409C240.969 513.693 241.497 510.381 241.497 505.472C241.497 500.114 240.916 496.287 239.755 493.99C238.62 491.694 236.812 490.546 234.331 490.546C232.193 490.546 230.596 491.404 229.54 493.12C228.511 494.809 227.996 498.108 227.996 503.017C227.996 508.375 228.564 512.202 229.699 514.498C230.86 516.795 232.681 517.943 235.162 517.943ZM233.301 524.792C227.389 524.792 222.929 523.248 219.92 520.16C216.937 517.072 215.446 512.598 215.446 506.739C215.446 499.428 217.254 493.766 220.87 489.754C224.512 485.716 229.619 483.697 236.191 483.697C242.104 483.697 246.551 485.241 249.533 488.329C252.516 491.417 254.007 495.891 254.007 501.75C254.007 509.061 252.199 514.736 248.583 518.774C244.967 522.786 239.873 524.792 233.301 524.792ZM281.253 517.388C290.095 517.388 297.116 516.346 302.315 514.261C303.477 516.003 304.057 517.89 304.057 519.922C304.057 521.374 303.516 522.416 302.434 523.05C301.352 523.683 299.161 524 295.862 524L263.081 524.04C262.606 522.878 262.369 521.757 262.369 520.674C262.369 519.962 262.567 519.447 262.962 519.13C263.358 518.787 263.939 518.616 264.704 518.616H267.594C267.753 515.211 267.832 506.356 267.832 492.051C267.832 484.317 267.74 478.761 267.555 475.383H263.081C262.606 474.222 262.369 473.113 262.369 472.057C262.369 471.318 262.567 470.791 262.962 470.474C263.358 470.131 263.939 469.959 264.704 469.959H285.569C286.017 470.936 286.242 471.912 286.242 472.889C286.242 473.839 286.07 474.499 285.727 474.868C285.384 475.211 284.843 475.383 284.104 475.383H280.263C280.131 478.761 280.065 484.33 280.065 492.09C280.065 506.369 280.145 514.802 280.303 517.388H281.253ZM334.312 520.952C332.333 521.954 330.076 522.852 327.542 523.644C325.008 524.409 322.62 524.792 320.376 524.792C316.549 524.792 313.738 523.908 311.944 522.139C310.175 520.371 309.291 517.89 309.291 514.696C309.291 510.236 310.822 506.923 313.884 504.759C316.945 502.595 321.775 501.513 328.374 501.513H332.689C332.451 497.448 331.778 494.677 330.67 493.199C329.561 491.694 327.899 490.942 325.681 490.942C324.467 490.942 323.148 491.1 321.722 491.417C320.799 493.159 320.244 494.083 320.06 494.188C319.901 494.294 318.991 494.532 317.328 494.901C315.692 495.271 314.53 495.152 313.844 494.545C313.158 493.938 312.458 492.869 311.746 491.338C311.059 489.807 310.716 488.514 310.716 487.458C310.716 486.798 310.98 486.284 311.508 485.914C312.062 485.545 314.068 485.149 317.526 484.726C320.983 484.304 324.665 484.093 328.572 484.093C333.217 484.093 336.859 484.898 339.499 486.508C342.138 488.092 343.458 491.18 343.458 495.772V506.264C343.458 512.096 343.708 515.686 344.21 517.032C344.711 518.352 345.609 518.866 346.902 518.576C347.298 519.315 347.496 520.041 347.496 520.754C347.496 521.941 346.783 522.852 345.358 523.485C343.959 524.092 342.059 524.396 339.657 524.396C338.601 524.396 337.77 524.264 337.163 524C336.556 523.736 335.605 522.72 334.312 520.952ZM332.689 507.808C330.789 507.412 328.862 507.214 326.909 507.214C324.692 507.214 323.108 507.583 322.158 508.322C321.208 509.061 320.733 510.46 320.733 512.519C320.733 514.314 321.195 515.673 322.118 516.597C323.069 517.494 324.441 517.943 326.236 517.943C327.661 517.943 328.915 517.639 329.997 517.032C331.105 516.425 331.831 515.567 332.174 514.459C332.517 513.324 332.689 511.859 332.689 510.064V507.808Z" fill="white"/>
</g>
<path d="M371.576 460.934C373.048 454.802 373.303 452.024 369.328 449.697C365.353 447.37 362.807 448.864 358.628 453.396C354.448 457.927 351.977 475.497 353.641 477.003C355.306 478.509 371.576 478.39 377.94 474.949C384.304 471.507 383.191 466.458 382.264 464.134C381.336 461.81 378.314 459.447 371.576 460.934Z" fill="#E94C70"/>
<path d="M328.434 444.486C321.706 439.77 318.463 438.133 313.767 441.845C309.071 445.557 309.677 449.361 313.19 456.598C316.702 463.835 336.808 475.228 339.418 473.928C342.027 472.628 349.57 452.826 348.41 443.458C347.25 434.09 340.61 433.028 337.358 433.044C334.106 433.059 329.817 435.598 328.434 444.486Z" fill="#E94C70"/>
<defs>
<filter id="filter0_d_186_1126" x="168.603" y="469.959" width="182.893" height="58.8326" filterUnits="userSpaceOnUse" color-interpolation-filters="sRGB">
<feFlood flood-opacity="0" result="BackgroundImageFix"/>
<feColorMatrix in="SourceAlpha" type="matrix" values="0 0 0 0 0 0 0 0 0 0 0 0 0 0 0 0 0 0 127 0" result="hardAlpha"/>
<feOffset dx="4" dy="4"/>
<feComposite in2="hardAlpha" operator="out"/>
<feColorMatrix type="matrix" values="0 0 0 0 0.913167 0 0 0 0 0.298013 0 0 0 0 0.438211 0 0 0 1 0"/>
<feBlend mode="normal" in2="BackgroundImageFix" result="effect1_dropShadow_186_1126"/>
<feBlend mode="normal" in="SourceGraphic" in2="effect1_dropShadow_186_1126" result="shape"/>
</filter>
</defs>
</svg>
