<svg width="222" height="103" viewBox="0 0 222 103" fill="none" xmlns="http://www.w3.org/2000/svg">
<g filter="url(#filter0_d_190_1056)">
<path d="M22.4873 87.3884C31.3292 87.3884 38.3499 86.3459 43.5494 84.2608C44.7107 86.0027 45.2914 87.8899 45.2914 89.9222C45.2914 91.3738 44.7503 92.4164 43.6682 93.0498C42.586 93.6833 40.3954 94 37.0962 94L4.31535 94.0396C3.84027 92.8783 3.60272 91.7565 3.60272 90.6744C3.60272 89.9618 3.80068 89.4471 4.19658 89.1304C4.59248 88.7873 5.17314 88.6157 5.93856 88.6157H8.82865C8.98701 85.2109 9.0662 76.3559 9.0662 62.0506C9.0662 54.3172 8.97382 48.7614 8.78906 45.383H4.31535C3.84027 44.2217 3.60272 43.1132 3.60272 42.0574C3.60272 41.3184 3.80068 40.7905 4.19658 40.4738C4.59248 40.1307 5.17314 39.9591 5.93856 39.9591H26.8027C27.2514 40.9357 27.4757 41.9123 27.4757 42.8888C27.4757 43.839 27.3042 44.4988 26.961 44.8683C26.6179 45.2115 26.0769 45.383 25.3378 45.383H21.4976C21.3656 48.7614 21.2996 54.3304 21.2996 62.0902C21.2996 76.3691 21.3788 84.8018 21.5372 87.3884H22.4873ZM70.1621 87.9427C72.2999 87.9427 73.8836 87.0981 74.9129 85.4089C75.9686 83.6933 76.4965 80.3809 76.4965 75.4717C76.4965 70.1138 75.9159 66.2867 74.7545 63.9905C73.6196 61.6943 71.8117 60.5461 69.3307 60.5461C67.1928 60.5461 65.596 61.4039 64.5402 63.1195C63.5109 64.8087 62.9962 68.1079 62.9962 73.0171C62.9962 78.375 63.5637 82.2021 64.6986 84.4983C65.8599 86.7946 67.6811 87.9427 70.1621 87.9427ZM68.3013 94.7918C62.3891 94.7918 57.9286 93.2478 54.9198 90.1597C51.9373 87.0717 50.4461 82.598 50.4461 76.7386C50.4461 69.4276 52.254 63.7662 55.8699 59.7543C59.5122 55.7161 64.6194 53.697 71.1914 53.697C77.1036 53.697 81.5509 55.241 84.5334 58.3291C87.5158 61.4171 89.0071 65.8908 89.0071 71.7502C89.0071 79.0612 87.1991 84.7359 83.5832 88.7741C79.9673 92.7859 74.8733 94.7918 68.3013 94.7918ZM116.253 87.3884C125.095 87.3884 132.116 86.3459 137.315 84.2608C138.477 86.0027 139.057 87.8899 139.057 89.9222C139.057 91.3738 138.516 92.4164 137.434 93.0498C136.352 93.6833 134.161 94 130.862 94L98.0812 94.0396C97.6061 92.8783 97.3686 91.7565 97.3686 90.6744C97.3686 89.9618 97.5665 89.4471 97.9624 89.1304C98.3583 88.7873 98.939 88.6157 99.7044 88.6157H102.594C102.753 85.2109 102.832 76.3559 102.832 62.0506C102.832 54.3172 102.74 48.7614 102.555 45.383H98.0812C97.6061 44.2217 97.3686 43.1132 97.3686 42.0574C97.3686 41.3184 97.5665 40.7905 97.9624 40.4738C98.3583 40.1307 98.939 39.9591 99.7044 39.9591H120.569C121.017 40.9357 121.242 41.9123 121.242 42.8888C121.242 43.839 121.07 44.4988 120.727 44.8683C120.384 45.2115 119.843 45.383 119.104 45.383H115.263C115.131 48.7614 115.065 54.3304 115.065 62.0902C115.065 76.3691 115.145 84.8018 115.303 87.3884H116.253ZM169.312 90.9515C167.333 91.9545 165.076 92.8519 162.542 93.6437C160.008 94.4091 157.62 94.7918 155.376 94.7918C151.549 94.7918 148.738 93.9076 146.944 92.1393C145.175 90.3709 144.291 87.8899 144.291 84.6963C144.291 80.2357 145.822 76.9234 148.884 74.7591C151.945 72.5948 156.775 71.5127 163.374 71.5127H167.689C167.451 67.4481 166.778 64.6767 165.67 63.1987C164.561 61.6943 162.899 60.942 160.681 60.942C159.467 60.942 158.148 61.1004 156.722 61.4171C155.799 63.1591 155.244 64.0829 155.06 64.1884C154.901 64.294 153.991 64.5316 152.328 64.9011C150.692 65.2706 149.53 65.1518 148.844 64.5448C148.158 63.9377 147.458 62.8688 146.746 61.3379C146.059 59.8071 145.716 58.5138 145.716 57.4581C145.716 56.7982 145.98 56.2836 146.508 55.9141C147.062 55.5446 149.068 55.1486 152.526 54.7263C155.983 54.3041 159.665 54.0929 163.572 54.0929C168.217 54.0929 171.859 54.8979 174.499 56.5079C177.138 58.0915 178.458 61.1796 178.458 65.7721V76.2635C178.458 82.0965 178.708 85.686 179.21 87.0321C179.711 88.3518 180.609 88.8664 181.902 88.5761C182.298 89.3151 182.496 90.041 182.496 90.7536C182.496 91.9413 181.783 92.8519 180.358 93.4853C178.959 94.0924 177.059 94.3959 174.657 94.3959C173.601 94.3959 172.77 94.2639 172.163 94C171.556 93.7361 170.605 92.7199 169.312 90.9515ZM167.689 77.8075C165.789 77.4116 163.862 77.2137 161.909 77.2137C159.692 77.2137 158.108 77.5832 157.158 78.3222C156.208 79.0612 155.733 80.4601 155.733 82.5188C155.733 84.3136 156.195 85.6728 157.118 86.5966C158.069 87.494 159.441 87.9427 161.236 87.9427C162.661 87.9427 163.915 87.6391 164.997 87.0321C166.105 86.425 166.831 85.5673 167.174 84.4587C167.517 83.3238 167.689 81.859 167.689 80.0642V77.8075Z" fill="white"/>
</g>
<path d="M206.576 30.9336C208.048 24.8024 208.303 22.0244 204.328 19.697C200.353 17.3696 197.807 18.8641 193.628 23.3956C189.448 27.9271 186.977 45.4973 188.641 47.0032C190.306 48.5091 206.576 48.3904 212.94 44.9489C219.304 41.5074 218.191 36.4577 217.264 34.1339C216.336 31.81 213.314 29.4467 206.576 30.9336Z" fill="#E94C70"/>
<path d="M163.434 14.4859C156.706 9.76978 153.463 8.13305 148.767 11.8451C144.071 15.5572 144.677 19.3608 148.19 26.5979C151.702 33.835 171.808 45.2282 174.418 43.928C177.027 42.6277 184.57 22.8258 183.41 13.458C182.25 4.09031 175.61 3.02836 172.358 3.04371C169.106 3.05907 164.817 5.59815 163.434 14.4859Z" fill="#E94C70"/>
<defs>
<filter id="filter0_d_190_1056" x="3.60278" y="39.9591" width="182.893" height="58.8326" filterUnits="userSpaceOnUse" color-interpolation-filters="sRGB">
<feFlood flood-opacity="0" result="BackgroundImageFix"/>
<feColorMatrix in="SourceAlpha" type="matrix" values="0 0 0 0 0 0 0 0 0 0 0 0 0 0 0 0 0 0 127 0" result="hardAlpha"/>
<feOffset dx="4" dy="4"/>
<feComposite in2="hardAlpha" operator="out"/>
<feColorMatrix type="matrix" values="0 0 0 0 0.913167 0 0 0 0 0.298013 0 0 0 0 0.438211 0 0 0 1 0"/>
<feBlend mode="normal" in2="BackgroundImageFix" result="effect1_dropShadow_190_1056"/>
<feBlend mode="normal" in="SourceGraphic" in2="effect1_dropShadow_190_1056" result="shape"/>
</filter>
</defs>
</svg>
