<svg width="37" height="53" viewBox="0 0 37 53" fill="none" xmlns="http://www.w3.org/2000/svg">
<g filter="url(#filter0_d_213_1133)">
<path d="M10.2727 33.75V32.8182C10.2727 30.2424 10.4848 28.1894 10.9091 26.6591C11.3485 25.1288 11.9848 23.9015 12.8182 22.9773C13.6515 22.0379 14.6667 21.1818 15.8636 20.4091C16.8182 19.803 17.6667 19.1894 18.4091 18.5682C19.1667 17.9318 19.7652 17.25 20.2045 16.5227C20.6439 15.7955 20.8636 14.9697 20.8636 14.0455C20.8636 13.1515 20.6515 12.3636 20.2273 11.6818C19.803 11 19.2197 10.4773 18.4773 10.1136C17.75 9.73485 16.9394 9.54545 16.0455 9.54545C15.1515 9.54545 14.3106 9.75 13.5227 10.1591C12.75 10.5682 12.1136 11.1515 11.6136 11.9091C11.1288 12.6515 10.8788 13.553 10.8636 14.6136H0.409091C0.454545 11.4318 1.18939 8.82576 2.61364 6.79545C4.05303 4.76515 5.95455 3.26515 8.31818 2.29545C10.6818 1.3106 13.2879 0.81818 16.1364 0.81818C19.2576 0.81818 22.0303 1.30303 24.4545 2.27272C26.8939 3.24242 28.8106 4.67424 30.2045 6.56818C31.5985 8.46212 32.2955 10.7803 32.2955 13.5227C32.2955 15.3258 31.9924 16.9167 31.3864 18.2955C30.7803 19.6742 29.9318 20.8939 28.8409 21.9545C27.7652 23 26.5 23.9545 25.0455 24.8182C23.9091 25.4848 22.9621 26.1818 22.2045 26.9091C21.4621 27.6364 20.9015 28.4697 20.5227 29.4091C20.1439 30.3333 19.9545 31.4697 19.9545 32.8182V33.75H10.2727ZM15.2955 48.6591C13.6591 48.6591 12.2576 48.0833 11.0909 46.9318C9.93939 45.7803 9.37121 44.3864 9.38636 42.75C9.37121 41.1439 9.93939 39.7727 11.0909 38.6364C12.2576 37.4848 13.6591 36.9091 15.2955 36.9091C16.8561 36.9091 18.2273 37.4848 19.4091 38.6364C20.5909 39.7727 21.1894 41.1439 21.2045 42.75C21.1894 43.8409 20.9015 44.8333 20.3409 45.7273C19.7955 46.6212 19.0758 47.3333 18.1818 47.8636C17.303 48.3939 16.3409 48.6591 15.2955 48.6591Z" fill="#E8393B"/>
</g>
<defs>
<filter id="filter0_d_213_1133" x="0.40918" y="0.818237" width="35.8867" height="51.8408" filterUnits="userSpaceOnUse" color-interpolation-filters="sRGB">
<feFlood flood-opacity="0" result="BackgroundImageFix"/>
<feColorMatrix in="SourceAlpha" type="matrix" values="0 0 0 0 0 0 0 0 0 0 0 0 0 0 0 0 0 0 127 0" result="hardAlpha"/>
<feOffset dx="4" dy="4"/>
<feComposite in2="hardAlpha" operator="out"/>
<feColorMatrix type="matrix" values="0 0 0 0 0.576471 0 0 0 0 0.0666667 0 0 0 0 0.0666667 0 0 0 1 0"/>
<feBlend mode="normal" in2="BackgroundImageFix" result="effect1_dropShadow_213_1133"/>
<feBlend mode="normal" in="SourceGraphic" in2="effect1_dropShadow_213_1133" result="shape"/>
</filter>
</defs>
</svg>
