<svg width="181" height="175" viewBox="0 0 181 175" fill="none" xmlns="http://www.w3.org/2000/svg">
<g filter="url(#filter0_d_180_3417)">
<path d="M89.6859 156.294C88.1785 156.294 86.0251 155.289 84.5177 154.356C44.033 128.515 18.407 98.4386 18.407 67.8597C18.407 42.4491 35.8499 24.5038 58.3893 24.5038C72.3866 24.5038 83.2974 32.3279 89.6859 44.1001C96.218 32.2562 106.985 24.5038 120.983 24.5038C143.522 24.5038 160.965 42.4491 160.965 67.8597C160.965 98.4386 135.339 128.515 94.926 154.356C93.3468 155.289 91.1933 156.294 89.6859 156.294Z" fill="white"/>
</g>
<path d="M79.5045 69.9483V96.1301H74.1352L63.7161 81.0193H63.5499V96.1301H57.2218V69.9483H62.6678L72.9718 85.0336H73.1891V69.9483H79.5045ZM88.3572 96.4625C87.1044 96.4625 85.9921 96.2537 85.0206 95.8361C84.0575 95.41 83.2947 94.7708 82.7322 93.9185C82.1782 93.0577 81.9012 91.9796 81.9012 90.6841C81.9012 89.5932 82.093 88.6728 82.4765 87.9228C82.86 87.1728 83.3885 86.5634 84.0617 86.0946C84.735 85.6259 85.5106 85.2722 86.3885 85.0336C87.2663 84.7864 88.2038 84.6202 89.201 84.535C90.3174 84.4327 91.2166 84.3262 91.8984 84.2154C92.5802 84.0961 93.0745 83.9299 93.3814 83.7168C93.6967 83.4952 93.8544 83.1841 93.8544 82.7836V82.7196C93.8544 82.0634 93.6285 81.5563 93.1768 81.1983C92.7251 80.8404 92.1157 80.6614 91.3487 80.6614C90.522 80.6614 89.8572 80.8404 89.3544 81.1983C88.8515 81.5563 88.5319 82.0506 88.3956 82.6813L82.6299 82.4767C82.8004 81.2836 83.2393 80.2182 83.9467 79.2807C84.6626 78.3347 85.6427 77.5932 86.887 77.0563C88.1399 76.5108 89.6441 76.2381 91.3998 76.2381C92.6527 76.2381 93.8075 76.3872 94.8643 76.6855C95.9211 76.9753 96.8416 77.4014 97.6257 77.9639C98.4098 78.5179 99.0149 79.1997 99.441 80.0094C99.8757 80.8191 100.093 81.7438 100.093 82.7836V96.1301H94.2123V93.3943H94.0589C93.7095 94.0591 93.262 94.6216 92.7166 95.0818C92.1796 95.5421 91.5447 95.8872 90.8117 96.1174C90.0873 96.3475 89.2691 96.4625 88.3572 96.4625ZM90.2876 92.3716C90.9609 92.3716 91.566 92.2353 92.1029 91.9625C92.6484 91.6898 93.0831 91.3148 93.4069 90.8375C93.7308 90.3517 93.8927 89.7892 93.8927 89.15V87.2836C93.7137 87.3773 93.4964 87.4625 93.2407 87.5392C92.9936 87.6159 92.7208 87.6884 92.4225 87.7566C92.1242 87.8247 91.8174 87.8844 91.5021 87.9355C91.1867 87.9867 90.8842 88.0336 90.5944 88.0762C90.0064 88.1699 89.5035 88.3148 89.0859 88.5108C88.6768 88.7068 88.3615 88.9625 88.1399 89.2779C87.9268 89.5847 87.8203 89.9512 87.8203 90.3773C87.8203 91.025 88.0504 91.5193 88.5106 91.8603C88.9794 92.2012 89.5717 92.3716 90.2876 92.3716ZM88.0376 74.0648L84.7777 74.0392C84.7777 72.3091 85.191 71.0009 86.0177 70.1145C86.8444 69.2282 87.8501 68.7807 89.0348 68.7722C89.6654 68.7722 90.2024 68.8745 90.6456 69.079C91.0973 69.275 91.4936 69.5094 91.8345 69.7821C92.1839 70.0463 92.5078 70.2807 92.8061 70.4853C93.1129 70.6813 93.4367 70.7793 93.7777 70.7793C94.2635 70.7708 94.6214 70.5918 94.8515 70.2424C95.0902 69.8844 95.2137 69.4029 95.2223 68.7978L98.4311 68.8361C98.4055 70.5492 97.9836 71.8574 97.1654 72.7608C96.3473 73.6557 95.3501 74.1074 94.174 74.1159C93.5262 74.1245 92.9765 74.0264 92.5248 73.8219C92.0731 73.6174 91.6811 73.383 91.3487 73.1188C91.0248 72.8546 90.7137 72.6245 90.4154 72.4284C90.1171 72.2239 89.789 72.1216 89.4311 72.1216C89.0135 72.1216 88.6768 72.2921 88.4211 72.633C88.1654 72.9654 88.0376 73.4426 88.0376 74.0648ZM112.42 96.5009C110.357 96.5009 108.585 96.079 107.102 95.2353C105.627 94.383 104.489 93.1983 103.688 91.6813C102.896 90.1557 102.499 88.3872 102.499 86.3759C102.499 84.356 102.896 82.5875 103.688 81.0705C104.489 79.5449 105.627 78.3603 107.102 77.5165C108.585 76.6642 110.357 76.2381 112.42 76.2381C114.482 76.2381 116.251 76.6642 117.725 77.5165C119.208 78.3603 120.346 79.5449 121.139 81.0705C121.94 82.5875 122.34 84.356 122.34 86.3759C122.34 88.3872 121.94 90.1557 121.139 91.6813C120.346 93.1983 119.208 94.383 117.725 95.2353C116.251 96.079 114.482 96.5009 112.42 96.5009ZM112.458 91.7836C113.208 91.7836 113.843 91.5534 114.363 91.0932C114.883 90.633 115.279 89.9938 115.552 89.1756C115.833 88.3574 115.974 87.4114 115.974 86.3375C115.974 85.2466 115.833 84.2921 115.552 83.4739C115.279 82.6557 114.883 82.0165 114.363 81.5563C113.843 81.0961 113.208 80.8659 112.458 80.8659C111.683 80.8659 111.026 81.0961 110.489 81.5563C109.961 82.0165 109.556 82.6557 109.275 83.4739C109.002 84.2921 108.866 85.2466 108.866 86.3375C108.866 87.4114 109.002 88.3574 109.275 89.1756C109.556 89.9938 109.961 90.633 110.489 91.0932C111.026 91.5534 111.683 91.7836 112.458 91.7836Z" fill="#872323"/>
<defs>
<filter id="filter0_d_180_3417" x="18.407" y="24.5038" width="152.558" height="141.791" filterUnits="userSpaceOnUse" color-interpolation-filters="sRGB">
<feFlood flood-opacity="0" result="BackgroundImageFix"/>
<feColorMatrix in="SourceAlpha" type="matrix" values="0 0 0 0 0 0 0 0 0 0 0 0 0 0 0 0 0 0 127 0" result="hardAlpha"/>
<feOffset dx="10" dy="10"/>
<feComposite in2="hardAlpha" operator="out"/>
<feColorMatrix type="matrix" values="0 0 0 0 0.530583 0 0 0 0 0.138898 0 0 0 0 0.138898 0 0 0 1 0"/>
<feBlend mode="normal" in2="BackgroundImageFix" result="effect1_dropShadow_180_3417"/>
<feBlend mode="normal" in="SourceGraphic" in2="effect1_dropShadow_180_3417" result="shape"/>
</filter>
</defs>
</svg>
